<svg xmlns="http://www.w3.org/2000/svg" width="24" height="24" viewBox="0 0 24 24">
  <g id="feature-4" transform="translate(-3922 -5036)">
    <rect id="矩形_3700" data-name="矩形 3700" width="24" height="24" transform="translate(3922 5036)" fill="none"/>
    <path id="路径_4871" data-name="路径 4871" d="M65.691,160a7.758,7.758,0,0,1,7.746,8.167,5.007,5.007,0,0,1,3.9,4.778,4.87,4.87,0,0,1-4.87,4.87H65.028l-.117-.008-.052-.008-.053.008-.116.008H59.37a6.034,6.034,0,0,1-1.2-11.947A7.76,7.76,0,0,1,65.691,160Zm0,1.724a6.035,6.035,0,0,0-5.958,5.072.862.862,0,0,1-.958.718l.14-.02a4.31,4.31,0,0,0,.226,8.59l.229.006h5.32a.838.838,0,0,1,.17.017l.051-.009.117-.008h7.436l.192-.006a3.146,3.146,0,0,0,2.954-3.14,3.283,3.283,0,0,0-2.455-3.073,7.58,7.58,0,0,1-.653,1.6.862.862,0,0,1-1.512-.827,6.035,6.035,0,0,0-5.3-8.922Zm4.02,5.632a.862.862,0,0,1,.077,1.132l-.077.087-4.064,4.064a2.011,2.011,0,0,1-2.724.111l-.121-.111L60.661,170.5a.862.862,0,0,1,1.131-1.3l.088.077,2.142,2.142a.287.287,0,0,0,.354.041l.052-.041,4.064-4.063a.862.862,0,0,1,1.218,0Z" transform="translate(3868.667 4879)" fill="#7e9de5"/>
  </g>
</svg>
