<svg xmlns="http://www.w3.org/2000/svg" width="24" height="24" viewBox="0 0 24 24">
  <g id="feature-1" transform="translate(-3884 -5067)">
    <rect id="矩形_3699" data-name="矩形 3699" width="24" height="24" transform="translate(3884 5067)" fill="none"/>
    <g id="组_4377" data-name="组 4377" transform="translate(3841.119 5067)">
      <path id="路径_4851" data-name="路径 4851" d="M60.883,9.5V8.566a19.714,19.714,0,0,1,2.526.023,1.8,1.8,0,0,1,1.443,1.835c.02,1.26.008,2.52.009,3.78v3a3.524,3.524,0,0,1-2.346,3.215c-.04.013-.078.028-.148.053V22.58c0,.292.007.583,0,.874a.515.515,0,0,1-.524.543c-.072.006-.146,0-.218,0h-10c-.61,0-.758-.147-.758-.753v-3.53c0-.135,0-.272-.009-.406-.055-.643-.241-.815-.878-.815H47.419a1.95,1.95,0,0,1-2.051-2.028c-.006-.439-.016-.878,0-1.312a.388.388,0,0,0-.289-.448,4.9,4.9,0,0,0-.842-.2,1.5,1.5,0,0,1-1.33-1.141,1.046,1.046,0,0,1,.111-.778q1.129-2.015,2.227-4.046a1.115,1.115,0,0,0,.111-.534,7.821,7.821,0,0,1,.888-4A7.4,7.4,0,0,1,50.977.257,8.377,8.377,0,0,1,53.348.006v.96c-.534.047-1.066.052-1.583.147A6.418,6.418,0,0,0,46.389,7.5a4.1,4.1,0,0,1-.6,2.172c-.622,1.046-1.185,2.128-1.771,3.195-.208.376-.09.595.355.638a3.122,3.122,0,0,1,1.667.632.79.79,0,0,1,.332.695c-.011.552-.006,1.1,0,1.656A.944.944,0,0,0,47.385,17.5c.874.005,1.752.043,2.624-.008a1.686,1.686,0,0,1,1.854,1.832c.035,1.092.011,2.187.012,3.28v.366h9.478c0-.094.013-.2.013-.314v-2.5c0-.463.142-.62.6-.663a1.694,1.694,0,0,0,1.244-.69,2.972,2.972,0,0,0,.665-1.868c-.019-2.1-.006-4.207-.007-6.31A.983.983,0,0,0,62.742,9.5H60.883" transform="translate(0 0)" fill="#716deb"/>
      <path id="路径_4852" data-name="路径 4852" d="M450.739,130.431v-1.46h.987v1.459h1.009v-1.454h1v1.453h1v-1.453h1.009v1.475a1.882,1.882,0,0,1,1.608.5,1.505,1.505,0,0,1,.385.985h-.98c-.078-.4-.362-.483-.737-.481-1.864.009-3.726,0-5.589.005-.444,0-.536.063-.706.483h-.952c-.011-.941.571-1.39,1.971-1.509" transform="translate(-396.374 -125.948)" fill="#716deb"/>
      <path id="路径_4853" data-name="路径 4853" d="M452.212,512.486h.974a1.265,1.265,0,0,1-.618,1.185,7.832,7.832,0,0,1-1.364.428v1.35h-1V514h-.995v1.456h-.989V514h-1.009v1.456h-1v-1.476a1.771,1.771,0,0,1-1.66-.57,5.682,5.682,0,0,1-.432-.924h1.066c.082.433.4.491.791.488q2.748-.016,5.5,0c.376,0,.661-.081.74-.491" transform="translate(-391.833 -500.474)" fill="#716deb"/>
      <path id="路径_4854" data-name="路径 4854" d="M535.87,302.727H534.9v-.953h-1v.953h-.969c-.014-.027-.039-.053-.039-.08,0-1-.017-2,0-3a.936.936,0,0,1,.916-.894q.577-.026,1.154,0a.894.894,0,0,1,.893.806c.033,1.046.011,2.094.011,3.166m-1-2.962h-.96v.966h.96Z" transform="translate(-478.52 -291.742)" fill="#716deb"/>
      <path id="路径_4855" data-name="路径 4855" d="M704.638,299.333h.952V303.3h-.952Z" transform="translate(-646.247 -292.317)" fill="#716deb"/>
      <path id="路径_4856" data-name="路径 4856" d="M384.735,278.3h1.956v.96h-1.956Z" transform="translate(-333.842 -271.776)" fill="#716deb"/>
      <path id="路径_4857" data-name="路径 4857" d="M811.094,277.924h1.953v.968h-1.953Z" transform="translate(-750.208 -271.41)" fill="#716deb"/>
      <path id="路径_4858" data-name="路径 4858" d="M384.788,363.265h1.944v.966h-1.944Z" transform="translate(-333.894 -354.751)" fill="#716deb"/>
      <path id="路径_4859" data-name="路径 4859" d="M384.788,448.527h1.949v.974h-1.949Z" transform="translate(-333.894 -438.014)" fill="#716deb"/>
      <path id="路径_4860" data-name="路径 4860" d="M811.282,449.2h1.959v.96h-1.959Z" transform="translate(-750.391 -438.668)" fill="#716deb"/>
      <path id="路径_4861" data-name="路径 4861" d="M533.634,43.87h.958v.953h-.958Z" transform="translate(-479.251 -42.842)" fill="#716deb"/>
      <path id="路径_4862" data-name="路径 4862" d="M619.4,43.763h.954v.956H619.4Z" transform="translate(-563.011 -42.737)" fill="#716deb"/>
      <path id="路径_4863" data-name="路径 4863" d="M704.049,43.924h.973v.946h-.973Z" transform="translate(-645.672 -42.894)" fill="#716deb"/>
      <path id="路径_4864" data-name="路径 4864" d="M299.206,278.432h.95v.962h-.95Z" transform="translate(-250.318 -271.906)" fill="#716deb"/>
      <path id="路径_4865" data-name="路径 4865" d="M939.067,278.138h.956v.968h-.956Z" transform="translate(-875.181 -271.619)" fill="#716deb"/>
      <path id="路径_4866" data-name="路径 4866" d="M299.233,363.694h.956v.951h-.956Z" transform="translate(-250.344 -355.17)" fill="#716deb"/>
      <path id="路径_4867" data-name="路径 4867" d="M299.527,448.875h.956v.963h-.956Z" transform="translate(-250.631 -438.354)" fill="#716deb"/>
      <path id="路径_4868" data-name="路径 4868" d="M533.928,683.517h.955v.961h-.955Z" transform="translate(-479.538 -667.496)" fill="#716deb"/>
      <path id="路径_4869" data-name="路径 4869" d="M619.431,683.57h.953v.956h-.953Z" transform="translate(-563.037 -667.548)" fill="#716deb"/>
      <path id="路径_4870" data-name="路径 4870" d="M704.478,683.41h.959v.955h-.959Z" transform="translate(-646.091 -667.392)" fill="#716deb"/>
    </g>
  </g>
</svg>
