<svg xmlns="http://www.w3.org/2000/svg" width="24" height="24" viewBox="0 0 24 24">
  <g id="feature-3" transform="translate(-3964 -5036)">
    <rect id="矩形_3701" data-name="矩形 3701" width="24" height="24" transform="translate(3964 5036)" fill="none"/>
    <path id="路径_4872" data-name="路径 4872" d="M13.361,84.857a.343.343,0,0,0-.346.339v2.532a.343.343,0,0,0,.347.339h7.628a.343.343,0,0,0,.347-.339V85.2a.343.343,0,0,0-.347-.339H13.362ZM18.039,76.8a3.581,3.581,0,0,1,2.3.7,2.673,2.673,0,0,1,.767,1.909v2.4a.78.78,0,0,1-1.56,0V79.454a1.235,1.235,0,0,0-.278-.843A2.438,2.438,0,0,0,18,78.325H3.031a2.079,2.079,0,0,0-1.208.306,1.537,1.537,0,0,0-.262,1.083l0,13.475a2.261,2.261,0,0,0,.353,1.177A1.957,1.957,0,0,0,3,94.737H18.017a2,2,0,0,0,1.257-.232,1.971,1.971,0,0,0,.267-1.243V90.92a.78.78,0,0,1,1.56,0v2.341a3.16,3.16,0,0,1-.7,2.3,3.156,3.156,0,0,1-2.4.7l-15.093,0a3.254,3.254,0,0,1-2.2-.919A3.652,3.652,0,0,1,0,93.263V79.713a2.788,2.788,0,0,1,.795-2.229A3.5,3.5,0,0,1,3,76.8H18.039Zm2.952,6.53A1.886,1.886,0,0,1,22.9,85.2v2.532a1.886,1.886,0,0,1-1.907,1.864H13.362a1.887,1.887,0,0,1-1.907-1.864V85.2a1.886,1.886,0,0,1,1.907-1.864h7.628ZM15.27,85.553a.92.92,0,1,0,.954.919.937.937,0,0,0-.954-.919Z" transform="translate(3964.551 4961.469)" fill="#c883c1" stroke="#c883c1" stroke-width="0.2"/>
  </g>
</svg>
