<svg xmlns="http://www.w3.org/2000/svg" width="24" height="24" viewBox="0 0 24 24">
  <g id="feature-2" transform="translate(-3998 -5036)">
    <rect id="矩形_3702" data-name="矩形 3702" width="24" height="24" transform="translate(3998 5036)" fill="none"/>
    <g id="组_4381" data-name="组 4381" transform="translate(3870 5036)">
      <path id="路径_4874" data-name="路径 4874" d="M147,8.75V7.063c0-4.416-2.613-7.078-7.031-7.063C135.566.016,133,2.591,133,7V8.75a.251.251,0,0,1-.25.25H132a3,3,0,0,0-3,3v9a3,3,0,0,0,3,3h16a3,3,0,0,0,3-3V12a3,3,0,0,0-3-3h-.75a.251.251,0,0,1-.25-.25ZM135,7c0-4.438,3.4-5,5-5a4.8,4.8,0,0,1,5,5V8.75a.251.251,0,0,1-.25.25h-9.5a.251.251,0,0,1-.25-.25Zm13,15H132a1,1,0,0,1-1-1V12a1,1,0,0,1,1-1h16a1,1,0,0,1,1,1v9A1,1,0,0,1,148,22Z" transform="translate(0 0)" fill="#59b585"/>
    </g>
  </g>
</svg>
