<?xml version="1.0" standalone="no"?><!DOCTYPE svg PUBLIC "-//W3C//DTD SVG 1.1//EN" "http://www.w3.org/Graphics/SVG/1.1/DTD/svg11.dtd"><svg t="1738902713087" class="icon" viewBox="0 0 1024 1024" version="1.1" xmlns="http://www.w3.org/2000/svg" p-id="10290" xmlns:xlink="http://www.w3.org/1999/xlink" width="200" height="200"><path d="M512.162 956.235c-245.843 0-445.104-199.335-445.104-445.12 0-245.902 199.261-445.106 445.104-445.106 245.844 0 445.107 199.204 445.107 445.106 0 245.785-199.263 445.12-445.107 445.12z m0-826.64c-210.362 0-381.505 171.142-381.505 381.52 0 210.392 171.143 381.52 381.505 381.52 210.394 0 381.506-171.128 381.506-381.52 0-210.378-171.112-381.52-381.506-381.52z m-0.201 233.118c-16.756 0-30.554-5.03-41.598-15.22-10.929-10.13-16.377-22.653-16.377-37.566 0-15.35 5.391-27.756 16.262-37.438 10.87-9.566 24.841-14.421 41.714-14.421 17.42 0 31.567 4.97 42.264 14.769 10.782 9.841 16.116 22.19 16.116 37.09 0 15.073-5.45 27.683-16.379 37.683-10.987 10.073-24.958 15.103-42.002 15.103z m49.45 401.45h-99.976V420.773h99.977v343.388z" fill="#D75043" p-id="10291"></path></svg>