<svg xmlns="http://www.w3.org/2000/svg" width="24" height="24.001" viewBox="0 0 24 24.001">
  <g id="free-icon" transform="translate(0 -96.976)">
    <rect id="矩形_3691" data-name="矩形 3691" width="24" height="24" transform="translate(0 96.977)" fill="none"/>
    <path id="free" d="M214.755,212.9c0,.429-.328.7-.88.7h-.436V212.25a2.754,2.754,0,0,1,.5-.036C214.449,212.222,214.755,212.447,214.755,212.9Zm13.226.523a3.463,3.463,0,0,1-1.02,2.464l-1.474,1.474v2.084A3.488,3.488,0,0,1,222,222.927h-2.085l-1.474,1.474a3.482,3.482,0,0,1-4.927,0l-1.473-1.472h-2.085a3.483,3.483,0,0,1-3.483-3.484v-2.086L205,215.885a3.484,3.484,0,0,1,0-4.927l1.474-1.473V207.4a3.488,3.488,0,0,1,3.483-3.484h2.084l1.475-1.475a3.482,3.482,0,0,1,4.927,0l1.473,1.472H222a3.483,3.483,0,0,1,3.483,3.484v2.084l1.474,1.474a3.465,3.465,0,0,1,1.02,2.464Zm-16.473-1.991h-2.993v4.9h1.112v-1.969h1.758v-.9h-1.758v-1.119h1.882v-.908Zm4.532,4.9c-.094-.189-.246-.828-.4-1.38a1.231,1.231,0,0,0-.654-.915v-.022a1.3,1.3,0,0,0,.865-1.206,1.243,1.243,0,0,0-.451-1.024,2.5,2.5,0,0,0-1.584-.386,9.73,9.73,0,0,0-1.475.1v4.831h1.1V214.4h.334c.451.007.661.174.792.785a6.239,6.239,0,0,0,.341,1.14Zm3.732-.908h-2.013v-1.162h1.8v-.9h-1.8v-1.017h1.912v-.908h-3.023v4.9h3.124v-.908Zm3.878,0h-2.013v-1.162h1.8v-.9h-1.8v-1.017h1.912v-.908h-3.023v4.9h3.124v-.908Z" transform="translate(-203.981 -104.445)" fill="#bbb"/>
  </g>
</svg>
