<svg xmlns="http://www.w3.org/2000/svg" width="24" height="24" viewBox="0 0 24 24">
  <g id="pay-as-you-go-icon" transform="translate(3175 3529)">
    <g id="组_4366" data-name="组 4366" transform="translate(-754.776 98.721)">
      <path id="路径_4164" data-name="路径 4164" d="M337.774,144.685l0,1.343a11.331,11.331,0,0,1,1.394.306l-.509,1.81c-2.127-.6-2.911-.386-3.011.356-.032.261.382.6,1.667,1.167l.478.213c1.161.539,1.835,1.088,2.02,2.034a2.648,2.648,0,0,1,.041.489,2.7,2.7,0,0,1-2.079,2.634,7.809,7.809,0,0,1-3.375-.712l-.338-.177-.56-.3.9-1.649c.679.37,1.208.644,1.573.81l.184.081.14.055c.966.359,1.675-.087,1.675-.739,0-.272-.264-.5-1.1-.878l-.675-.3c-1.8-.836-2.6-1.581-2.41-2.971a2.406,2.406,0,0,1,2.109-2.238v-1.33h1.879Z" transform="translate(-2743.823 -3767.972)" fill="#4a928c"/>
      <path id="路径_4165" data-name="路径 4165" d="M97.29,85.333a8.251,8.251,0,0,1,6.532,13.293,2.494,2.494,0,0,1,2.518,1.612,2.261,2.261,0,0,1-1.218,2.869l-.117.047L98.375,105.6a4.791,4.791,0,0,1-2.754.168l-7.647-1.8H85.525a.213.213,0,0,1-.213-.213V102.58a.213.213,0,0,1,.212-.213H88.16l7.827,1.842a3.194,3.194,0,0,0,1.687-.062l.149-.05,6.632-2.443a.665.665,0,0,0,.389-.855.9.9,0,0,0-1-.569l-.079.018L99.9,101.3H95.107a.213.213,0,0,1-.213-.213V99.919a.214.214,0,0,1,.213-.213h1.65a.8.8,0,0,0,.077-1.593l-.077,0H85.525a.213.213,0,0,1-.213-.213V96.725a.214.214,0,0,1,.213-.213h4.048A8.256,8.256,0,0,1,97.29,85.333Zm0,1.6a6.657,6.657,0,0,0-5.977,9.582h5.178a3.434,3.434,0,0,1,1.6.4,2.393,2.393,0,0,1,.929,2.792h.669l.534-.145A6.655,6.655,0,0,0,97.29,86.93Z" transform="translate(-2504.536 -3711.333)" fill="#4a928c"/>
    </g>
    <rect id="矩形_3692" data-name="矩形 3692" width="24" height="24" transform="translate(-3175 -3529)" fill="none"/>
  </g>
</svg>
