<svg xmlns="http://www.w3.org/2000/svg" width="24" height="24" viewBox="0 0 24 24">
  <g id="premium-icon" transform="translate(0 -96.977)">
    <path id="路径_4153" data-name="路径 4153" d="M12,118.889,0,106.138l4.583-6.582H19.417L24,106.138Z" fill="#ff9843"/>
    <path id="路径_4154" data-name="路径 4154" d="M7.108,380.4,12,393.153,0,380.4Z" transform="translate(0 -274.264)" fill="#ffc25a"/>
    <path id="路径_4155" data-name="路径 4155" d="M0,106.138l4.583-6.582H19.417L24,106.138Z" fill="#ffc25a"/>
    <path id="路径_4156" data-name="路径 4156" d="M0,106.138l4.583-6.582,2.525,6.582Z" fill="#ffaf45"/>
    <path id="路径_4157" data-name="路径 4157" d="M195.556,99.556l7.417,19.333,7.417-19.333Z" transform="translate(-190.973)" fill="#ffe572"/>
    <path id="路径_4158" data-name="路径 4158" d="M303.289,106.138h9.783l-4.892-6.582Z" transform="translate(-296.181)" fill="#fff48a"/>
    <path id="路径_4159" data-name="路径 4159" d="M198.095,106.138l-2.525-6.582h7.416Z" transform="translate(-190.986)" fill="#ffc25a"/>
    <path id="路径_4160" data-name="路径 4160" d="M308.181,393.153,303.289,380.4h9.783Z" transform="translate(-296.181 -274.264)" fill="#ffe572"/>
    <path id="路径_4161" data-name="路径 4161" d="M547.325,227.668a1.891,1.891,0,0,1-1.42-1.42.048.048,0,0,0-.1,0,1.891,1.891,0,0,1-1.42,1.42.048.048,0,0,0,0,.1,1.891,1.891,0,0,1,1.42,1.42.048.048,0,0,0,.1,0,1.891,1.891,0,0,1,1.42-1.42A.049.049,0,0,0,547.325,227.668Zm-3.814-2.093a1.587,1.587,0,0,1-1.134-1.134.052.052,0,0,0-.1,0,1.587,1.587,0,0,1-1.134,1.134.052.052,0,0,0,0,.1,1.587,1.587,0,0,1,1.134,1.134.052.052,0,0,0,.1,0,1.587,1.587,0,0,1,1.134-1.134A.052.052,0,0,0,543.511,225.575Z" transform="translate(-527.34 -121.553)" fill="#fff"/>
    <rect id="矩形_3690" data-name="矩形 3690" width="24" height="24" transform="translate(0 96.977)" fill="none"/>
  </g>
</svg>
