<svg xmlns="http://www.w3.org/2000/svg" width="50" height="50" viewBox="0 0 50 50">
  <g id="sale" transform="translate(-4637.144 -979.833)">
    <g id="组_4382" data-name="组 4382" transform="translate(4637.144 979.832)">
      <path id="路径_4876" data-name="路径 4876" d="M29,43.378a3.252,3.252,0,0,0-.058,4.6L51.039,77.827a3.252,3.252,0,0,0,4.6-.058L77.042,56.364a3.252,3.252,0,0,0,.058-4.6L47.248,29.674a3.252,3.252,0,0,0-4.6.058L29,43.378Z" transform="translate(-28.023 -28.751)" fill="#53e0bb"/>
      <path id="路径_4875" data-name="路径 4875" d="M5.54,2.488c-.282,0-1.08,0-1.127.563-.047.423.516.61,1.221.845C7.183,4.46,8.122,5.07,7.981,6.807c-.235,2.441-2.019,3.568-4.507,3.568A7.68,7.68,0,0,1,0,9.671L1.033,7.324a6.35,6.35,0,0,0,2.488.516c.657,0,1.127-.141,1.174-.563.047-.329-.469-.516-1.08-.751C2.488,6.1.986,5.446,1.174,3.38,1.455,1.08,3.333,0,5.728,0A6.606,6.606,0,0,1,9.014.7L7.934,2.911A6.338,6.338,0,0,0,5.54,2.488Zm2.347,7.7,5.023-10H17.23l.282,10H14.272l.047-1.925H11.972l-.845,1.925ZM13.1,5.822h1.315l.094-3.192ZM24.037.188l-1.5,6.432A1.167,1.167,0,0,0,22.488,7c-.047.61.235.892,1.268.892A5.713,5.713,0,0,0,25.4,7.7l-.563,2.441a7.187,7.187,0,0,1-2.066.235c-2.864,0-3.662-1.127-3.521-2.864.047-.282.094-.61.141-.892l1.5-6.432h3.146Zm9.437,6.244H29.953l-.094.329A.955.955,0,0,0,29.812,7c-.047.7.423.939,1.69.939a11.339,11.339,0,0,0,2.113-.188l-.563,2.441a14.714,14.714,0,0,1-2.582.235c-3.052,0-3.991-1.221-3.85-3a2.335,2.335,0,0,1,.141-.751l1.5-6.432h7.089l-.563,2.488H30.8l-.329,1.268H33.99l-.516,2.441Z" transform="matrix(0.875, 0.485, -0.485, 0.875, 12.066, 11.873)" fill="#fff"/>
      <circle id="椭圆_450" data-name="椭圆 450" cx="2.5" cy="2.5" r="2.5" transform="translate(7.903 8.216)" fill="#fff"/>
    </g>
  </g>
</svg>
