<svg xmlns="http://www.w3.org/2000/svg" width="82.672" height="36.531" viewBox="0 0 82.672 36.531">
  <g id="sale_red" transform="translate(-3422.546 -1154.469)">
    <path id="路径_4879" data-name="路径 4879" d="M39.225,0H99.681a6.169,6.169,0,0,1,6.171,5.665l.016.417V30.438a6.157,6.157,0,0,1-5.767,6.08l-.418.013H39.222a2.609,2.609,0,0,1-1.753-.678l-.224-.235L23.824,19.962a2.609,2.609,0,0,1-.193-3.142l.193-.253L37.242.913A2.609,2.609,0,0,1,38.9.023L39.225,0h0Zm-2.5,14.351a3.915,3.915,0,1,0,3.917,3.914A3.915,3.915,0,0,0,36.72,14.351Z" transform="translate(3399.35 1154.469)" fill="#ff511e"/>
    <path id="路径_4881" data-name="路径 4881" d="M8.479,3.79c-.431,0-1.653,0-1.725.858-.072.644.79.93,1.868,1.287,2.371.858,3.808,1.788,3.593,4.434-.359,3.719-3.09,5.435-6.9,5.435A11.8,11.8,0,0,1,0,14.733l1.581-3.576a9.756,9.756,0,0,0,3.808.787c1.006,0,1.725-.215,1.8-.858.072-.5-.719-.787-1.653-1.144C3.808,9.3,1.509,8.3,1.8,5.149,2.228,1.645,5.1,0,8.766,0A10.148,10.148,0,0,1,13.8,1.073L12.144,4.434a9.74,9.74,0,0,0-3.665-.644Zm3.593,11.729L19.76.286h6.611L26.8,15.519H21.844l.072-2.932H18.323L17.03,15.519Zm7.976-6.651h2.012L22.2,4ZM36.79.286l-2.3,9.8a1.77,1.77,0,0,0-.072.572c-.072.93.359,1.359,1.94,1.359a8.783,8.783,0,0,0,2.515-.286l-.862,3.719a11.048,11.048,0,0,1-3.162.358c-4.383,0-5.6-1.716-5.389-4.363.072-.429.144-.93.216-1.359l2.3-9.8H36.79ZM51.233,9.8H45.844l-.144.5a1.449,1.449,0,0,0-.072.358c-.072,1.073.647,1.43,2.587,1.43a17.433,17.433,0,0,0,3.233-.286l-.862,3.719a22.622,22.622,0,0,1-3.952.358c-4.671,0-6.108-1.859-5.892-4.577a3.542,3.542,0,0,1,.216-1.144l2.3-9.8h10.85l-.862,3.791H47.137l-.5,1.931h5.389L51.233,9.8Z" transform="translate(3443.427 1163.589)" fill="#fff"/>
  </g>
</svg>
