<svg xmlns="http://www.w3.org/2000/svg" width="16" height="16" viewBox="0 0 16 16">
  <g id="account" transform="translate(-164 -300)">
    <rect id="矩形_3236" data-name="矩形 3236" width="16" height="16" transform="translate(164 300)" fill="none"/>
    <path id="路径_3784" data-name="路径 3784" d="M75.03,31.772a.648.648,0,1,1-1.3,0l-.006-.061a.741.741,0,0,1,.007-.076,5.851,5.851,0,0,0-5.809-5.016c-.024,0-.047,0-.07,0s-.047,0-.07,0a5.852,5.852,0,0,0-5.793,4.919.68.68,0,0,1,.025.173l.006.062a.658.658,0,1,1-1.316,0v-.006H60.7c0-.019.006-.038.008-.057a.663.663,0,0,1,.021-.158,7.057,7.057,0,0,1,4.484-5.71,5.1,5.1,0,0,1-2.3-4.311,4.949,4.949,0,1,1,9.894,0,5.1,5.1,0,0,1-2.3,4.31,7.058,7.058,0,0,1,4.478,5.652.654.654,0,0,1,.04.219l.005.061Zm-3.363-10.24a3.811,3.811,0,1,0-3.811,3.85,3.831,3.831,0,0,0,3.811-3.85Z" transform="translate(104.137 283.563)" fill="currentColor"/>
  </g>
</svg>
