<svg xmlns="http://www.w3.org/2000/svg" xmlns:xlink="http://www.w3.org/1999/xlink" width="100" height="100"><defs><circle id="prefix__a" cx="50" cy="50" r="50"/></defs><g fill="none" fill-rule="evenodd"><mask id="prefix__b" fill="#fff"><use xlink:href="#prefix__a"/></mask><use fill="#ECECEC" xlink:href="#prefix__a"/><g fill="#6D7278" fill-rule="nonzero" mask="url(#prefix__b)"><path d="M48.864 83.534c.588-.932 1.12-1.765 1.642-2.62l12.85-21.273c.445-.743.844-.876 1.665-.488 3.263 1.531 6.415 3.263 9.378 5.327 3.94 2.74 7.435 5.959 10.276 9.843 2.952 4.04 5.182 8.445 6.247 13.35 1.254 5.77.5 11.342-1.897 16.713-.988 2.22-2.22 4.283-3.596 6.28-.577.833-1.454 1.21-2.352 1.21-22.517.067-45.033.09-67.539.122-.222 0-.443 0-.665-.01-1.254-.023-2.153-.622-2.83-1.62-2.275-3.386-4.029-6.992-4.972-10.965a26.726 26.726 0 0 1-.655-8.5c.267-3.119 1.01-6.126 2.298-8.99 3.384-7.568 8.822-13.394 15.636-18.032 2.719-1.843 5.615-3.352 8.6-4.728.067-.033.122-.055.189-.078.732-.277.765-.266 1.165.389a26440.3 26440.3 0 0 1 14.205 23.482c.088.166.188.333.355.588zM27.446 33.33C27.9 21.267 37.789 12.1 49.918 12.622c11.708.51 20.807 10.265 20.352 22.272-.432 11.508-10.531 20.775-22.75 20.142-11.196-.588-20.385-10.287-20.074-21.706z"/></g></g></svg>
