<svg xmlns="http://www.w3.org/2000/svg" xmlns:xlink="http://www.w3.org/1999/xlink" width="16" height="16" viewBox="0 0 16 16">
  <defs>
    <clipPath id="clip-path">
      <circle id="椭圆_232" data-name="椭圆 232" cx="8" cy="8" r="8" transform="translate(0 0)" fill="#fff"/>
    </clipPath>
    <filter id="路径_2708" x="-5.245" y="-3.63" width="26.228" height="31.63" filterUnits="userSpaceOnUse">
      <feOffset dy="3" input="SourceAlpha"/>
      <feGaussianBlur stdDeviation="3" result="blur"/>
      <feFlood flood-opacity="0.161"/>
      <feComposite operator="in" in2="blur"/>
      <feComposite in="SourceGraphic"/>
    </filter>
  </defs>
  <g id="avtar_placeholder" transform="translate(-63.874 -63.306)">
    <path id="路径_2707" data-name="路径 2707" d="M71.837,63.562a7.963,7.963,0,1,1-7.963,7.963A7.963,7.963,0,0,1,71.837,63.562Z" transform="translate(0 -0.181)" fill="#eee"/>
    <g id="蒙版组_46" data-name="蒙版组 46" transform="translate(63.874 63.306)" clip-path="url(#clip-path)">
      <g transform="matrix(1, 0, 0, 1, 0, 0)" filter="url(#路径_2708)">
        <path id="路径_2708-2" data-name="路径 2708" d="M286.708,205.345a7.2,7.2,0,0,1-3.5.861,7.685,7.685,0,0,1-4.3-1.214c1.411-.364,2.857-.294,3.167-.934.727-1.43.364-1.973-.658-2.157-1.389-.373-1.836-1.063-1.662-4.573.344-1.86.147-5.315,4.437-4.674,4.375.654,3.066,4.394,1.233,8.912A2.676,2.676,0,0,0,286.708,205.345Z" transform="translate(-275.15 -190.21)" fill="#fff"/>
      </g>
    </g>
  </g>
</svg>
