<svg id="back" xmlns="http://www.w3.org/2000/svg" width="32" height="32" viewBox="0 0 32 32">
  <rect id="矩形_3245" data-name="矩形 3245" width="32" height="32" rx="16" fill="none"/>
  <path id="联合_167" data-name="联合 167" d="M-7780.222-2412.737l-7.071-7.071a1,1,0,0,1,0-1.413l7.069-7.071a1,1,0,0,1,1.415,0,1,1,0,0,1,0,1.415l-5.363,5.365h12.142a1,1,0,0,1,1,1,1,1,0,0,1-1,1h-12.143l5.365,5.365a1,1,0,0,1,0,1.413.992.992,0,0,1-.706.293A1,1,0,0,1-7780.222-2412.737Z" transform="translate(7795.308 2436.514)" fill="currentColor"/>
</svg>
