<svg xmlns="http://www.w3.org/2000/svg" width="40" height="40" viewBox="0 0 40 40">
  <g id="close" transform="translate(-12 -12)">
    <circle id="椭圆_387" data-name="椭圆 387" cx="20" cy="20" r="20" transform="translate(12 12)" fill="none"/>
    <path id="Close-2" data-name="Close" d="M-14130.768-4004.768v-8.462h-8.462a.769.769,0,0,1-.771-.77.769.769,0,0,1,.771-.77h8.462v-8.46a.769.769,0,0,1,.77-.77.768.768,0,0,1,.767.77v8.46h8.463a.769.769,0,0,1,.771.77.769.769,0,0,1-.771.77h-8.463v8.462a.767.767,0,0,1-.767.767A.768.768,0,0,1-14130.768-4004.768Z" transform="translate(7185.092 12861.744) rotate(45)" fill="currentColor"/>
  </g>
</svg>
