<svg id="eyeclose" xmlns="http://www.w3.org/2000/svg" width="16" height="16" viewBox="0 0 16 16">
  <rect id="矩形_3263" data-name="矩形 3263" width="16" height="16" transform="translate(0)" fill="none"/>
  <path id="路径_3795" data-name="路径 3795" d="M15.547,204.78a.8.8,0,0,0-1.064.384A7.1,7.1,0,0,1,8,208.7a7.255,7.255,0,0,1-6.487-3.559.8.8,0,0,0-1.432.72,8.535,8.535,0,0,0,2.975,3.087l-1.352,2.336a.8.8,0,0,0,1.384.8l1.4-2.4A9.334,9.334,0,0,0,7.2,210.3v3.2a.8.8,0,1,0,1.6,0v-3.2a9.494,9.494,0,0,0,2.72-.584l1.392,2.4a.8.8,0,1,0,1.384-.8l-1.336-2.344a8.15,8.15,0,0,0,2.959-3.127.8.8,0,0,0-.376-1.064Z" transform="translate(0 -200.499)" fill="currentColor"/>
</svg>
