<svg id="eyeopen" xmlns="http://www.w3.org/2000/svg" width="16" height="16" viewBox="0 0 16 16">
  <rect id="矩形_3263" data-name="矩形 3263" width="16" height="16" transform="translate(0)" fill="none"/>
  <path id="路径_3797" data-name="路径 3797" d="M15.9,133.719c0-.056-2.144-5.719-7.95-5.719C2.291,128,.1,133.471.012,133.7a.8.8,0,0,0,0,.592c.088.232,2.28,5.7,7.942,5.7,5.807,0,7.926-5.663,7.95-5.719a.8.8,0,0,0,0-.56Zm-5.847-2.072a1.032,1.032,0,1,1-.3-.735,1.032,1.032,0,0,1,.3.735Zm-2.1,6.735c-3.935,0-5.831-3.343-6.327-4.383a8.23,8.23,0,0,1,3.415-3.679,3.6,3.6,0,1,0,5.791-.04A7.838,7.838,0,0,1,14.289,134C13.833,135.015,12.009,138.382,7.954,138.382Z" transform="translate(0.045 -125.999)" fill="currentColor"/>
</svg>
