<svg xmlns="http://www.w3.org/2000/svg" width="16" height="16" viewBox="0 0 16 16">
  <path id="forgot" d="M61.333,69.333a8,8,0,1,1,8-8A8,8,0,0,1,61.333,69.333Zm0-1.116a6.884,6.884,0,1,0-6.884-6.884,6.884,6.884,0,0,0,6.884,6.884ZM61.458,57a2.664,2.664,0,0,1,1.858.631,2.152,2.152,0,0,1,.714,1.7,2.3,2.3,0,0,1-.452,1.453,12.134,12.134,0,0,1-1,.929,1.977,1.977,0,0,0-.5.619,1.6,1.6,0,0,0-.191.786v.2H60.613v-.2a2.37,2.37,0,0,1,.238-1.131A5.893,5.893,0,0,1,62.2,60.512l.2-.226a1.4,1.4,0,0,0,.333-.869,1.356,1.356,0,0,0-.345-.976,1.381,1.381,0,0,0-1.012-.357,1.317,1.317,0,0,0-1.167.512,1.992,1.992,0,0,0-.321,1.215h-1.25A2.611,2.611,0,0,1,61.458,57Zm-.214,6.966a.852.852,0,0,1,.631.238.79.79,0,0,1,.25.607.845.845,0,0,1-.262.619.894.894,0,0,1-.619.238.854.854,0,0,1-.619-.25.826.826,0,0,1-.25-.607.79.79,0,0,1,.25-.607A.843.843,0,0,1,61.244,63.965Z" transform="translate(-53.333 -53.333)" fill="currentColor"/>
</svg>
