<svg xmlns="http://www.w3.org/2000/svg" xmlns:xlink="http://www.w3.org/1999/xlink" width="24" height="24" viewBox="0 0 24 24">
  <defs>
    <clipPath id="clip-gift">
      <rect width="24" height="24"/>
    </clipPath>
  </defs>
  <g id="gift" clip-path="url(#clip-gift)">
    <g id="组_4355" data-name="组 4355" transform="translate(-920.625 -64.629)">
      <path id="路径_4072" data-name="路径 4072" d="M922,289.09a.68.68,0,0,1-.68-.68v-2.329a2.6,2.6,0,0,1,2.6-2.6h17.417a2.6,2.6,0,0,1,2.6,2.6v2.329a.681.681,0,0,1-.68.68h-9.2a.68.68,0,0,1,0-1.36h8.518v-1.649a1.238,1.238,0,0,0-1.235-1.235H923.917a1.238,1.238,0,0,0-1.235,1.235v1.649h8.36a.68.68,0,1,1,0,1.36H922Zm0,0" transform="translate(0 -212.271)" fill="#4a928c"/>
      <path id="路径_4073" data-name="路径 4073" d="M1014.165,453.316a3.573,3.573,0,0,1-3.567-3.569v-8.219a.68.68,0,0,1,1.36,0v8.219a2.209,2.209,0,0,0,2.206,2.206h10.659a2.21,2.21,0,0,0,2.206-2.206v-5.534a.68.68,0,1,1,1.36,0v5.536a3.57,3.57,0,0,1-3.567,3.567h-10.659Zm0,0" transform="translate(-86.869 -365.389)" fill="#4a928c"/>
      <path id="路径_4074" data-name="路径 4074" d="M1241.662,87.927a.681.681,0,0,1-.68-.68V76.139a.68.68,0,0,1,.68-.68h4a.68.68,0,0,1,.68.68V87.247a.68.68,0,0,1-.68.68h-4Zm3.325-11.108h-2.645v9.748h2.645V76.819Zm-1.458-4.247a.673.673,0,0,1-.6-.359c-.762-1.423-.177-3.531,1.42-5.128a5.98,5.98,0,0,1,2.922-1.665,2.749,2.749,0,0,1,3.461,3.46,5.981,5.981,0,0,1-1.665,2.922,6.857,6.857,0,0,1-.732.634.688.688,0,0,1-.408.136h-4.4Zm4.165-1.36a4.093,4.093,0,0,0,.408-.373,4.676,4.676,0,0,0,1.3-2.236,1.412,1.412,0,0,0-1.85-1.85,4.7,4.7,0,0,0-2.236,1.295A3.845,3.845,0,0,0,1244,71.212h3.7Zm0,0" transform="translate(-311.039)" fill="#4a928c"/>
      <path id="路径_4075" data-name="路径 4075" d="M1069.8,72.575a.67.67,0,0,1-.408-.136,6.841,6.841,0,0,1-.732-.634A5.983,5.983,0,0,1,1067,68.883a2.749,2.749,0,0,1,3.461-3.46,5.98,5.98,0,0,1,2.922,1.665c1.6,1.6,2.182,3.708,1.42,5.128a.679.679,0,0,1-.6.359h-4.4Zm3.931-1.36a3.831,3.831,0,0,0-1.317-3.161,4.677,4.677,0,0,0-2.236-1.3,1.412,1.412,0,0,0-1.85,1.85,4.7,4.7,0,0,0,1.295,2.236,5.313,5.313,0,0,0,.411.37h3.7Zm0,0" transform="translate(-141.662 -0.003)" fill="#4a928c"/>
    </g>
  </g>
</svg>
