<svg xmlns="http://www.w3.org/2000/svg" width="30" height="30" viewBox="0 0 30 30">
  <g id="google" transform="translate(-19 -5)">
    <rect id="矩形_3272" data-name="矩形 3272" width="30" height="30" transform="translate(19 5)" fill="none"/>
    <g id="组_3504" data-name="组 3504" transform="translate(17.121 -3.579)">
      <path id="路径_3766" data-name="路径 3766" d="M9.793,295.621a7.1,7.1,0,0,1,.374-2.263l-4.2-3.138a12.053,12.053,0,0,0,0,10.8l4.194-3.144a7.077,7.077,0,0,1-.37-2.254" transform="translate(0 -272.042)" fill="#fbbc05"/>
      <path id="路径_3767" data-name="路径 3767" d="M68.365,16.38a7.308,7.308,0,0,1,4.59,1.607l3.628-3.547a12.612,12.612,0,0,0-19.41,3.743l4.2,3.138a7.334,7.334,0,0,1,6.994-4.941" transform="translate(-51.203)" fill="#ea4335"/>
      <path id="路径_3768" data-name="路径 3768" d="M68.365,609.869a7.337,7.337,0,0,1-7-4.942l-4.2,3.138a12.46,12.46,0,0,0,11.192,6.791,12.027,12.027,0,0,0,8.124-3.039L72.505,608.8a7.839,7.839,0,0,1-4.141,1.066" transform="translate(-51.203 -579.091)" fill="#34a853"/>
      <path id="路径_3769" data-name="路径 3769" d="M528.555,423.209a9.938,9.938,0,0,0-.284-2.217h-11.62V425.7h6.688a5.487,5.487,0,0,1-2.546,3.644l3.983,3.016a12,12,0,0,0,3.779-9.154" transform="translate(-499.489 -399.635)" fill="#4285f4"/>
    </g>
  </g>
</svg>
