<svg xmlns="http://www.w3.org/2000/svg" xmlns:xlink="http://www.w3.org/1999/xlink" width="24" height="24" viewBox="0 0 24 24">
  <defs>
    <clipPath id="clip-logout">
      <rect width="24" height="24"/>
    </clipPath>
  </defs>
  <g id="logout" clip-path="url(#clip-logout)">
    <g id="组_4354" data-name="组 4354" transform="translate(-160.821 -159.75)">
      <path id="路径_4070" data-name="路径 4070" d="M177.242,183.75H165.515a3.335,3.335,0,0,1-3.335-3.335V163.085a3.335,3.335,0,0,1,3.335-3.335h11.727a3.334,3.334,0,0,1,3.334,3.334v1.125a.894.894,0,1,1-1.788,0v-1.125a1.546,1.546,0,0,0-1.546-1.547H165.515a1.546,1.546,0,0,0-1.546,1.546v17.331a1.546,1.546,0,0,0,1.546,1.546h11.727a1.546,1.546,0,0,0,1.546-1.546v-.931a.894.894,0,1,1,1.788,0v.931A3.334,3.334,0,0,1,177.242,183.75Z" fill="#4a928c"/>
      <path id="路径_4071" data-name="路径 4071" d="M453.224,382.254l-3.965-3.965a.894.894,0,0,0-1.265,1.265l2.433,2.433.038.036h-9.74a.894.894,0,1,0,0,1.788H450.4l-2.711,2.711a.763.763,0,0,0,.084,1.181,1.076,1.076,0,0,0,1.361-.1l4.086-4.086A.894.894,0,0,0,453.224,382.254Z" transform="translate(-268.665 -211.214)" fill="#4a928c"/>
    </g>
  </g>
</svg>
