<svg xmlns="http://www.w3.org/2000/svg" width="16" height="16" viewBox="0 0 16 16">
  <g id="password" transform="translate(-164 -300)">
    <rect id="矩形_3236" data-name="矩形 3236" width="16" height="16" transform="translate(164 300)" fill="none"/>
    <path id="路径_1800" data-name="路径 1800" d="M6.815-1.221a.61.61,0,0,0,.609-.609V-3.777a.61.61,0,0,0-.609-.609.61.61,0,0,0-.609.609V-1.83A.61.61,0,0,0,6.815-1.221Zm6.815-4.5a1.461,1.461,0,0,0-1.46-1.46h-.487v-1.9A4.9,4.9,0,0,0,6.831-14,4.872,4.872,0,0,0,1.947-9.132v1.947H1.46A1.461,1.461,0,0,0,0-5.724V.118a1.461,1.461,0,0,0,1.46,1.46H12.17a1.461,1.461,0,0,0,1.46-1.46ZM2.921-7.185V-9.132a3.9,3.9,0,0,1,3.895-3.895A3.9,3.9,0,0,1,10.71-9.132v1.947Zm9.736,7.3A.488.488,0,0,1,12.17.6H1.46A.488.488,0,0,1,.974.118V-5.724a.488.488,0,0,1,.487-.487H12.17a.488.488,0,0,1,.487.487Z" transform="translate(165.185 314.211)" fill="#4a928c" stroke="#4a928c" stroke-width="0.2"/>
  </g>
</svg>
