<svg xmlns="http://www.w3.org/2000/svg" xmlns:xlink="http://www.w3.org/1999/xlink" width="24" height="24" viewBox="0 0 24 24">
  <defs>
    <clipPath id="clip-plan">
      <rect width="24" height="24"/>
    </clipPath>
  </defs>
  <g id="plan" clip-path="url(#clip-plan)">
    <g id="组_4356" data-name="组 4356" transform="translate(-64.218 -129.5)">
      <path id="路径_4076" data-name="路径 4076" d="M80.97,133.325a.794.794,0,0,1,.572.285l.005.008.005.008,4.689,5.841a.833.833,0,0,1-.083,1.052l-9.3,10.031,0,0,0,0a.774.774,0,0,1-.518.22h-.016a.83.83,0,0,1-.5-.188l-.07-.07-9.491-10.044a.767.767,0,0,1-.064-.974l.008-.011.008-.011,4.7-5.852v-.005a.73.73,0,0,1,.582-.3H80.97m0-1.823H71.487a2.548,2.548,0,0,0-2.008.982l-4.7,5.852a2.6,2.6,0,0,0,.129,3.377l9.526,10.082.129.129a2.65,2.65,0,0,0,1.75.684H76.4a2.6,2.6,0,0,0,1.793-.811l9.311-10.039a2.659,2.659,0,0,0,.172-3.417l-4.7-5.852a2.614,2.614,0,0,0-2.01-.988Z" fill="#4a928c"/>
      <path id="路径_4078" data-name="路径 4078" d="M22.767,18.942a.376.376,0,0,1,.712,0l.864,2.512a.376.376,0,0,0,.234.234l2.518.858a.376.376,0,0,1,0,.712l-2.518.858a.376.376,0,0,0-.234.234l-.864,2.512a.376.376,0,0,1-.712,0L21.9,24.351a.376.376,0,0,0-.234-.234l-2.518-.858a.376.376,0,0,1,0-.712l2.518-.858a.376.376,0,0,0,.234-.234Z" transform="translate(54.24 117.335)" fill="#4a928c"/>
      <path id="路径_4079" data-name="路径 4079" d="M14.009,12.64a.165.165,0,0,1,.312,0l.323.943a.165.165,0,0,0,.1.1l.943.323a.165.165,0,0,1,0,.312l-.943.323a.165.165,0,0,0-.1.1l-.323.943a.165.165,0,0,1-.312,0l-.323-.943a.165.165,0,0,0-.1-.1l-.943-.323a.165.165,0,0,1,0-.312l.943-.323a.165.165,0,0,0,.1-.1Z" transform="translate(66.457 121.859)" fill="#4a928c"/>
    </g>
  </g>
</svg>
