<svg xmlns="http://www.w3.org/2000/svg" width="16" height="16" viewBox="0 0 16 16">
  <g id="resetpassword" transform="translate(-8703 -2383)">
    <rect id="矩形_3260" data-name="矩形 3260" width="16" height="16" transform="translate(8703 2383)" fill="none"/>
    <path id="路径_3793" data-name="路径 3793" d="M109.238,79.374l.029.1.419,2.376a.6.6,0,0,1-.384.671l-.1.028-2.376.419a.6.6,0,0,1-.314-1.158l.1-.029.9-.16a6.634,6.634,0,1,0,2.945,5.516.6.6,0,0,1,1.206,0,7.84,7.84,0,1,1-3.409-6.469l-.175-.983a.6.6,0,0,1,1.114-.41l.046.1Zm-5.946,4.5H104.5a1.206,1.206,0,0,1,1.2,1.065l.008.141v.655h.029a1.206,1.206,0,0,1,1.206,1.206v2.412a1.206,1.206,0,0,1-1.206,1.206h-3.618a1.206,1.206,0,0,1-1.206-1.206V86.945a1.206,1.206,0,0,1,1.176-1.206v-.655a1.206,1.206,0,0,1,1.066-1.2l.141-.007Zm2.441,3.067h-3.618v2.412h3.618ZM104.5,85.084h-1.206v.655H104.5Z" transform="translate(8607.018 2304.021)" fill="currentColor"/>
  </g>
</svg>
