<svg xmlns="http://www.w3.org/2000/svg" width="16" height="16" viewBox="0 0 16 16">
  <g id="verify" transform="translate(-164 -300)">
    <rect id="矩形_3236" data-name="矩形 3236" width="16" height="16" transform="translate(164 300)" fill="none"/>
    <path id="路径_3804" data-name="路径 3804" d="M-7823.279-3372.653a10.47,10.47,0,0,1-4.581-4.021,13.711,13.711,0,0,1-2.14-7.507,1.539,1.539,0,0,1,.951-1.425l5.773-2.405a1.85,1.85,0,0,1,.593-.118,1.839,1.839,0,0,1,.591.118l5.773,2.405a1.54,1.54,0,0,1,.949,1.425,13.485,13.485,0,0,1-2.384,7.868,10.811,10.811,0,0,1-4.341,3.659,1.535,1.535,0,0,1-.593.118A1.542,1.542,0,0,1-7823.279-3372.653Zm.448-14.284-5.773,2.405a.382.382,0,0,0-.234.352c0,5.245,3.1,9.3,6.007,10.454a.4.4,0,0,0,.149.029.382.382,0,0,0,.147-.029c2.91-1.156,6-5.211,6-10.454a.38.38,0,0,0-.234-.352l-5.771-2.405a.376.376,0,0,0-.147-.03A.365.365,0,0,0-7822.832-3386.937Zm-.611,8.914-2.351-2.179a.6.6,0,0,1-.031-.847.594.594,0,0,1,.44-.194.607.607,0,0,1,.409.161l1.928,1.79,3.38-3.335a.6.6,0,0,1,.42-.171.6.6,0,0,1,.428.177.594.594,0,0,1,.173.428.588.588,0,0,1-.179.42l-3.789,3.738a.6.6,0,0,1-.42.173A.6.6,0,0,1-7823.442-3378.024Z" transform="translate(7994.684 3688.268)" fill="#272636"/>
  </g>
</svg>
