<svg xmlns="http://www.w3.org/2000/svg" xmlns:xlink="http://www.w3.org/1999/xlink" width="24" height="24" viewBox="0 0 24 24">
  <defs>
    <linearGradient id="linear-gradient" x1="0.121" y1="0.129" x2="0.893" y2="1" gradientUnits="objectBoundingBox">
      <stop offset="0" stop-color="#6dffc5"/>
      <stop offset="0.477" stop-color="#c17bff"/>
      <stop offset="1" stop-color="#008aff"/>
    </linearGradient>
  </defs>
  <g id="aianswer-btn" transform="translate(-3219 -414)">
    <rect id="矩形_3302" data-name="矩形 3302" width="24" height="24" transform="translate(3219 414)" fill="none"/>
    <g id="组件_488_25" data-name="组件 488 – 25" transform="translate(3223 418)">
      <rect id="矩形_2741" data-name="矩形 2741" width="16" height="16" fill="none"/>
      <path id="联合_169" data-name="联合 169" d="M-5610.936-6278.854a.758.758,0,0,1-.189-.289l-.556-1.287h-3.171l-.551,1.292a.868.868,0,0,1-.194.286.438.438,0,0,1-.3.107.465.465,0,0,1-.292-.088.373.373,0,0,1-.137-.248.616.616,0,0,1,.06-.308l2.472-5.634a.713.713,0,0,1,.232-.3.522.522,0,0,1,.3-.093.553.553,0,0,1,.3.093.649.649,0,0,1,.22.3l2.481,5.632a.551.551,0,0,1,.066.313.353.353,0,0,1-.129.248.46.46,0,0,1-.289.083A.487.487,0,0,1-5610.936-6278.854Zm-3.56-2.4h2.468l-1.235-2.9Zm4.654,2.315a.5.5,0,0,1-.117-.349v-5.7a.5.5,0,0,1,.12-.357.457.457,0,0,1,.348-.13.454.454,0,0,1,.346.13.492.492,0,0,1,.122.357v5.7a.521.521,0,0,1-.113.349.455.455,0,0,1-.354.136A.454.454,0,0,1-5609.841-6278.935Zm-11.667-.028L-5615.3-6293h2.243l-6.207,14.037Zm-1.392-7.3-2.1-.7,2.1-.7.7-2.1.7,2.1,2.1.7-2.1.7-.7,2.1Zm2.4-4.192-1.5-.5,1.5-.5.5-1.5.5,1.5,1.5.5-1.5.5-.5,1.5Z" transform="translate(5625 6293.961)" fill="url(#linear-gradient)"/>
    </g>
  </g>
</svg>
