<svg xmlns="http://www.w3.org/2000/svg" width="13.997" height="13.997" viewBox="0 0 13.997 13.997">
  <g id="ainewchat" transform="translate(-324.8 -162.5)">
    <path id="路径_4056" data-name="路径 4056" d="M331.8,162.5a7,7,0,0,0-7,7v4.533a2.465,2.465,0,0,0,2.465,2.465H331.8a7,7,0,1,0,0-14Zm5.6,7a5.606,5.606,0,0,1-5.6,5.6h-4.236a1.369,1.369,0,0,1-1.369-1.369V169.5a5.6,5.6,0,1,1,11.21,0Z" fill="#4a928c"/>
    <path id="路径_4057" data-name="路径 4057" d="M505.927,397H500.5a.7.7,0,1,0,0,1.394h5.431a.7.7,0,1,0,0-1.394Zm-3.275,3.484H500.5a.7.7,0,1,0,0,1.394h2.156a.7.7,0,1,0,0-1.394Z" transform="translate(-171.414 -229.694)" fill="#4a928c"/>
  </g>
</svg>
