<svg id="aisettings" xmlns="http://www.w3.org/2000/svg" width="14" height="14" viewBox="0 0 14 14">
  <path id="路径_3870" data-name="路径 3870" d="M77.5,705.5H70.938a2,2,0,0,0-3.875,0H64.5a.5.5,0,0,0,0,1h2.563a2,2,0,0,0,3.875,0H77.5a.5.5,0,0,0,0-1ZM69,707.016A1.016,1.016,0,1,1,70.016,706,1.016,1.016,0,0,1,69,707.016Z" transform="translate(-64 -694)" fill="#4a928c"/>
  <path id="路径_3871" data-name="路径 3871" d="M77.5,385.5H74.938a2,2,0,0,0-3.875,0H64.5a.5.5,0,1,0,0,1h6.563a2,2,0,0,0,3.875,0H77.5a.5.5,0,0,0,0-1ZM73,387.016A1.016,1.016,0,1,1,74.016,386,1.016,1.016,0,0,1,73,387.016Z" transform="translate(-64 -379)" fill="#4a928c"/>
  <path id="路径_3872" data-name="路径 3872" d="M64.5,66.5h2.563a2,2,0,0,0,3.875,0H77.5a.5.5,0,0,0,0-1H70.938a2,2,0,0,0-3.875,0H64.5a.5.5,0,0,0,0,1ZM69,64.984A1.016,1.016,0,1,1,67.984,66,1.016,1.016,0,0,1,69,64.984Z" transform="translate(-64 -64)" fill="#4a928c"/>
</svg>
