<svg xmlns="http://www.w3.org/2000/svg" width="20" height="20" viewBox="0 0 20 20">
  <g id="clear" transform="translate(-1382.305 -743.913)">
    <circle id="椭圆_444" data-name="椭圆 444" cx="10" cy="10" r="10" transform="translate(1382.305 743.913)" fill="#b91c1c"/>
    <path id="直线_71" data-name="直线 71" d="M0,12.75A.75.75,0,0,1-.75,12V0A.75.75,0,0,1,0-.75.75.75,0,0,1,.75,0V12A.75.75,0,0,1,0,12.75Z" transform="translate(1396.547 749.67) rotate(45)" fill="#fff"/>
    <path id="直线_71-2" data-name="直线 71" d="M0,12.75A.75.75,0,0,1-.75,12V0A.75.75,0,0,1,0-.75.75.75,0,0,1,.75,0V12A.75.75,0,0,1,0,12.75Z" transform="translate(1396.547 758.156) rotate(135)" fill="#fff"/>
  </g>
</svg>
