<svg xmlns="http://www.w3.org/2000/svg" xmlns:xlink="http://www.w3.org/1999/xlink" width="207.486" height="206.883" viewBox="0 0 207.486 206.883">
  <defs>
    <filter id="Rectangle_3870" x="0" y="0" width="207.486" height="206.883" filterUnits="userSpaceOnUse">
      <feOffset dy="3" input="SourceAlpha"/>
      <feGaussianBlur stdDeviation="3" result="blur"/>
      <feFlood flood-opacity="0.161"/>
      <feComposite operator="in" in2="blur"/>
      <feComposite in="SourceGraphic"/>
    </filter>
  </defs>
  <g id="deepseek" transform="translate(9 6)">
    <g transform="matrix(1, 0, 0, 1, -9, -6)" filter="url(#Rectangle_3870)">
      <rect id="Rectangle_3870-2" data-name="Rectangle 3870" width="189.486" height="188.883" rx="48" transform="translate(9 6)" fill="#fff"/>
    </g>
    <path id="路径_4882" data-name="路径 4882" d="M163.232,152.46c-1.528-.764-2.188.692-3.08,1.432a7.085,7.085,0,0,0-.824.836c-2.232,2.435-4.84,4.035-8.251,3.844a15.887,15.887,0,0,0-13,5.2c-.8-4.8-3.456-7.664-7.5-9.5-2.118-.955-4.255-1.91-5.739-3.987a16.411,16.411,0,0,1-1.832-4.751c-.328-.979-.657-1.982-1.761-2.149-1.2-.191-1.671.836-2.143,1.7a22.743,22.743,0,0,0-2.537,11.292c.16,8.809,3.808,15.828,11.048,20.819a1.571,1.571,0,0,1,.776,1.982c-.492,1.718-1.083,3.389-1.6,5.108-.328,1.1-.821,1.337-1.976.859a33.242,33.242,0,0,1-10.437-7.233c-5.148-5.086-9.8-10.7-15.607-15.089q-2.016-1.52-4.14-2.889c-5.924-5.873.776-10.7,2.328-11.268,1.62-.6.564-2.65-4.679-2.626s-10.039,1.814-16.151,4.2a18.222,18.222,0,0,1-2.8.836A56.553,56.553,0,0,0,56,150.454c-11.331,1.289-20.382,6.756-27.037,16.091-7.992,11.221-9.875,23.969-7.568,37.267A57.171,57.171,0,0,0,41.592,238.5c11.167,9.406,24.026,14.014,38.7,13.131,8.911-.525,18.831-1.743,30.021-11.412,2.823,1.432,5.786,2.006,10.7,2.435a34.382,34.382,0,0,0,10.251-.788c4.419-.955,4.112-5.133,2.516-5.9-12.955-6.159-10.111-3.653-12.7-5.681,6.584-7.951,16.5-16.211,20.383-42.973a25.23,25.23,0,0,0,0-5.181c-.024-1.05.209-1.456,1.388-1.576a24.721,24.721,0,0,0,9.287-2.913c8.391-4.679,11.779-12.367,12.579-21.582.119-1.409-.024-2.865-1.484-3.6ZM90.091,235.4C77.539,225.324,71.449,222,68.933,222.148c-2.352.143-1.928,2.889-1.412,4.679a17.261,17.261,0,0,0,2.235,4.536c.68,1.027,1.152,2.555-.683,3.7-4.044,2.554-11.072-.859-11.4-1.027a52.85,52.85,0,0,1-19.845-20.293,62.922,62.922,0,0,1-7.8-27.5c-.119-2.363.564-3.2,2.865-3.629a27.563,27.563,0,0,1,9.194-.239A57.116,57.116,0,0,1,74.952,199.4c5.219,5.276,9.168,11.579,13.238,17.739,4.324,6.541,8.98,12.772,14.9,17.882a47.514,47.514,0,0,0,5.359,4.154c-4.819.549-12.862.668-18.361-3.773Zm6.018-39.511A1.862,1.862,0,0,1,97.969,194a1.768,1.768,0,0,1,.632.119,1.893,1.893,0,1,1-2.492,1.767Zm18.691,9.788a10.686,10.686,0,0,1-3.551.979,7.381,7.381,0,0,1-4.793-1.552c-1.647-1.409-2.822-2.2-3.315-4.655a10.806,10.806,0,0,1,.093-3.6,4.073,4.073,0,0,0-1.432-4.465,6.143,6.143,0,0,0-4.139-1.218,3.3,3.3,0,0,1-1.528-.477,1.566,1.566,0,0,1-.68-2.2,6.8,6.8,0,0,1,1.152-1.289c2.14-1.241,4.607-.836,6.888.1,2.116.883,3.712,2.507,6.019,4.8a38.784,38.784,0,0,1,4.112,5.61,23.364,23.364,0,0,1,2.68,5.2c.4,1.194-.116,2.173-1.5,2.77Z" transform="translate(9.113 -103.11)" fill="#4d6bfe"/>
  </g>
</svg>
