<svg xmlns="http://www.w3.org/2000/svg" width="12.302" height="13.9" viewBox="0 0 12.302 13.9">
  <g id="delete" transform="translate(-3.45 -2.45)">
    <path id="路径_4073" data-name="路径 4073" d="M8.2,9.4,11,12.244M11,9.4,8.2,12.244m5.6-7.111-.561,8.543a3.513,3.513,0,0,1-.233,1.406,1.41,1.41,0,0,1-.606.576,3.362,3.362,0,0,1-1.4.142H8.2a3.362,3.362,0,0,1-1.4-.142,1.409,1.409,0,0,1-.606-.576,3.513,3.513,0,0,1-.233-1.406L5.4,5.133m-1.4,0H15.2m-2.8,0-.189-.577a3.286,3.286,0,0,0-.446-1.046A1.4,1.4,0,0,0,11.2,3.1,3.162,3.162,0,0,0,10.087,3H9.115A3.162,3.162,0,0,0,8,3.1a1.4,1.4,0,0,0-.562.411A3.285,3.285,0,0,0,6.99,4.556L6.8,5.133" transform="translate(0 0)" fill="none" stroke="#4a928c" stroke-linecap="round" stroke-linejoin="round" stroke-width="1.1"/>
  </g>
</svg>
