<svg xmlns="http://www.w3.org/2000/svg" width="14.001" height="14" viewBox="0 0 14.001 14">
  <g id="edit" transform="translate(0.002 -0.096)">
    <path id="路径_4074" data-name="路径 4074" d="M287.58,10.316a1.48,1.48,0,0,1-.226.017,1.519,1.519,0,0,1-.946-.328c-.32-.321-.311-.785-.3-1.547a2.462,2.462,0,0,1,.663-1.537L293.3.394a1.293,1.293,0,0,1,1.825.212c.145.145.536.541.681.681a1.3,1.3,0,0,1,.227,1.835L289.5,9.654a2.314,2.314,0,0,1-1.536.661h-.381Zm-.483-.995a4.682,4.682,0,0,0,.589.036q.138,0,.274-.008a1.391,1.391,0,0,0,.857-.377l6.546-6.532s0-.007,0-.01a.612.612,0,0,0-.221-.472c-.146-.141-.547-.542-.687-.686a.631.631,0,0,0-.477-.217h-.006l-6.528,6.528a1.527,1.527,0,0,0-.376.878c-.005.086-.008.18-.008.274a4.757,4.757,0,0,0,.039.61Z" transform="translate(-282.328 0)" fill="#4a928c"/>
    <path id="路径_4075" data-name="路径 4075" d="M-12505-3353.9a2,2,0,0,1-2-2v-8a2,2,0,0,1,2-2h4.5a.5.5,0,0,1,.5.5.5.5,0,0,1-.5.5.5.5,0,0,1-.056,0H-12505a1,1,0,0,0-1,1v8a1,1,0,0,0,1,1h8a1,1,0,0,0,1-1v-4.5h0a.5.5,0,0,1,.5-.5.5.5,0,0,1,.5.5v4.5a2,2,0,0,1-2,2Z" transform="translate(12506.999 3368)" fill="#4a928c"/>
  </g>
</svg>
