<svg xmlns="http://www.w3.org/2000/svg" xmlns:xlink="http://www.w3.org/1999/xlink" width="24" height="24" viewBox="0 0 24 24">
  <defs>
    <clipPath id="clip-feedback">
      <rect width="24" height="24"/>
    </clipPath>
  </defs>
  <g id="feedback" clip-path="url(#clip-feedback)">
    <g id="组_4357" data-name="组 4357" transform="translate(-60.9 -61.8)">
      <path id="路径_4080" data-name="路径 4080" d="M84.477,73.812a.927.927,0,0,0-.88-.074l-2.458,1.069V62.731a.932.932,0,0,0-.931-.931H65.563a.932.932,0,0,0-.931.931v12.06L62.2,73.735a.929.929,0,0,0-1.3.854v10.23a.932.932,0,0,0,.931.931H83.969a.932.932,0,0,0,.931-.931V74.589A.925.925,0,0,0,84.477,73.812ZM66.494,63.662H79.277V75.613L72.9,78.384,66.494,75.6ZM83.038,83.888H62.759V76.009l9.772,4.243a.924.924,0,0,0,.742,0l9.762-4.243v7.879Z" transform="translate(0)" fill="#4a928c"/>
      <path id="路径_4081" data-name="路径 4081" d="M399.072,174.762a1.21,1.21,0,1,1,0,2.42.93.93,0,0,0-.931.92l-.019,1.8a.932.932,0,0,0,.92.942h.011a.93.93,0,0,0,.931-.92l.011-1.016a3.074,3.074,0,1,0-4-2.934.931.931,0,0,0,1.862,0A1.211,1.211,0,0,1,399.072,174.762Z" transform="translate(-326.187 -108.145)" fill="#4a928c"/>
      <path id="路径_4082" data-name="路径 4082" d="M472.531,523.631m-.931,0a.931.931,0,1,0,.931-.931A.931.931,0,0,0,471.6,523.631Z" transform="translate(-399.776 -448.641)" fill="#4a928c"/>
    </g>
  </g>
</svg>
