<svg xmlns="http://www.w3.org/2000/svg" width="14" height="14" viewBox="0 0 14 14">
  <g id="helpful" transform="translate(-75 -617.784)">
    <rect id="矩形_3682" data-name="矩形 3682" width="14" height="14" transform="translate(75 617.784)" fill="none"/>
    <path id="路径_4054" data-name="路径 4054" d="M53.676,56.666h-9.1a1.875,1.875,0,0,1-1.909-1.909V50.3a1.875,1.875,0,0,1,1.909-1.909H46.1l2.355-5.345a.557.557,0,0,1,.573-.382,2.553,2.553,0,0,1,2.545,2.545v1.909h3.309a1.8,1.8,0,0,1,1.273.764,1.572,1.572,0,0,1,.318,1.4l-.891,5.727a1.97,1.97,0,0,1-1.909,1.655Zm-6.555-1.273h6.555a.685.685,0,0,0,.636-.509l.891-5.727a.537.537,0,0,0-.127-.445.644.644,0,0,0-.445-.255H50.94a.6.6,0,0,1-.636-.636V45.211A1.3,1.3,0,0,0,49.412,44l-2.291,5.155Zm-2.545-5.727a.6.6,0,0,0-.636.636v4.455a.6.6,0,0,0,.636.636h1.273V49.666H44.576Z" transform="translate(32.333 575.118)" fill="#4a928c"/>
  </g>
</svg>
