<svg xmlns="http://www.w3.org/2000/svg" width="14.001" height="14.001" viewBox="0 0 14.001 14.001">
  <g id="helpful-checked" transform="translate(-74.999 -617.784)">
    <rect id="矩形_3682" data-name="矩形 3682" width="14" height="14" transform="translate(75 617.784)" fill="none"/>
    <path id="减去_206" data-name="减去 206" d="M-12232.991-2651.215H-12240v-9.552l1.792-4.067a.555.555,0,0,1,.571-.381,2.548,2.548,0,0,1,2.547,2.544v1.908h3.307a1.816,1.816,0,0,1,1.275.765,1.562,1.562,0,0,1,.316,1.4l-.892,5.728A1.975,1.975,0,0,1-12232.991-2651.215Zm-8.407,0h-.691a1.869,1.869,0,0,1-1.911-1.911v-4.452a1.869,1.869,0,0,1,1.911-1.911h.691v8.274Z" transform="translate(12319 3283)" fill="#4a928c"/>
  </g>
</svg>
