<svg xmlns="http://www.w3.org/2000/svg" xmlns:xlink="http://www.w3.org/1999/xlink" width="207.486" height="206.883" viewBox="0 0 207.486 206.883">
  <defs>
    <linearGradient id="linear-gradient" x1="0.07" y1="0.071" x2="0.921" y2="0.91" gradientUnits="objectBoundingBox">
      <stop offset="0" stop-color="#288bff"/>
      <stop offset="1" stop-color="#d065ff"/>
    </linearGradient>
    <filter id="Rectangle_3870" x="0" y="0" width="207.486" height="206.883" filterUnits="userSpaceOnUse">
      <feOffset dy="3" input="SourceAlpha"/>
      <feGaussianBlur stdDeviation="3" result="blur"/>
      <feFlood flood-opacity="0.161"/>
      <feComposite operator="in" in2="blur"/>
      <feComposite in="SourceGraphic"/>
    </filter>
  </defs>
  <g id="qwen" transform="translate(579 -947)">
    <g transform="matrix(1, 0, 0, 1, -579, 947)" filter="url(#Rectangle_3870)">
      <rect id="Rectangle_3870-2" data-name="Rectangle 3870" width="189.486" height="188.883" rx="48" transform="translate(9 6)" fill="url(#linear-gradient)"/>
    </g>
    <g id="组_4384" data-name="组 4384" transform="translate(136.721 -143.742)">
      <path id="联合_173" data-name="联合 173" d="M-63.129,264.738l-7.223-13.758,33.97-58.836,19.419-.12,15.648,26.642L-10.3,234.225l-16.25-.841-18.57,32.164Zm-51.954-30.516,8.852-13.653-18.57-32.163,9.707-15.193,15.527.624L-65.6,232.672-75.2,249.549l-30.9.231Zm28.772-47.59-9.814-16.758L-80.876,143H-62.91l7.4,14.494h37.139l8.3,16-8.3,13.135Z" transform="translate(-549.163 986.909)" fill="#fff"/>
    </g>
  </g>
</svg>
