<svg xmlns="http://www.w3.org/2000/svg" width="14" height="14" viewBox="0 0 14 14">
  <g id="retry" transform="translate(0.702 0.282)">
    <circle id="椭圆_439" data-name="椭圆 439" cx="7" cy="7" r="7" transform="translate(-0.702 -0.282)" fill="none"/>
    <g id="组_2753" data-name="组 2753" transform="translate(-0.409 -0.282)">
      <path id="路径_3024" data-name="路径 3024" d="M141.412,135.335h0l0-.052a.587.587,0,0,0-.043-.214.5.5,0,0,0-.052-.1.544.544,0,0,0-.155-.155.5.5,0,0,0-.1-.053.653.653,0,0,0-.105-.031.537.537,0,0,0-.213,0,.644.644,0,0,0-.1.028.609.609,0,0,0-.176.109.619.619,0,0,0-.069.077.591.591,0,0,0-.055.087.655.655,0,0,0-.037.1.681.681,0,0,0-.019.1,5.6,5.6,0,1,1-5.576-6.112,5.6,5.6,0,0,1,4.586,2.386.558.558,0,0,0,.458.239.587.587,0,0,0,.215-.043.5.5,0,0,0,.1-.052.544.544,0,0,0,.155-.155.458.458,0,0,0,.052-.1.49.49,0,0,0,.032-.105.536.536,0,0,0,.011-.11.545.545,0,0,0-.1-.321,6.714,6.714,0,0,0-5.5-2.863,6.719,6.719,0,1,0,6.692,7.335Z" transform="translate(-128 -127.44)" fill="#4a928c"/>
      <path id="路径_3025" data-name="路径 3025" d="M579.36,96.56a.538.538,0,0,1,.011-.11.62.62,0,0,1,.031-.1.577.577,0,0,1,.052-.1.749.749,0,0,1,.069-.085.636.636,0,0,1,.085-.069.575.575,0,0,1,.1-.052.508.508,0,0,1,.1-.031.548.548,0,0,1,.11-.011.538.538,0,0,1,.11.011.622.622,0,0,1,.1.031.578.578,0,0,1,.1.052.755.755,0,0,1,.085.069.642.642,0,0,1,.07.085.581.581,0,0,1,.051.1.509.509,0,0,1,.031.1.549.549,0,0,1,.011.11v3.36a.538.538,0,0,1-.011.11.62.62,0,0,1-.031.1.581.581,0,0,1-.051.1.755.755,0,0,1-.07.085.637.637,0,0,1-.085.069.578.578,0,0,1-.1.052.508.508,0,0,1-.1.031.548.548,0,0,1-.11.011h-3.36a.537.537,0,0,1-.11-.011.623.623,0,0,1-.1-.031.577.577,0,0,1-.1-.052.747.747,0,0,1-.085-.069.642.642,0,0,1-.069-.085.572.572,0,0,1-.051-.1.509.509,0,0,1-.031-.1.549.549,0,0,1-.011-.11.538.538,0,0,1,.011-.11.626.626,0,0,1,.031-.1.572.572,0,0,1,.051-.1.754.754,0,0,1,.069-.085.638.638,0,0,1,.085-.069.578.578,0,0,1,.1-.052.508.508,0,0,1,.1-.031.548.548,0,0,1,.11-.011h2.8Z" transform="translate(-568.16 -96)" fill="#4a928c"/>
    </g>
  </g>
</svg>
