<svg xmlns="http://www.w3.org/2000/svg" width="36" height="36" viewBox="0 0 36 36">
  <g id="sendvoice-active" transform="translate(-1303 -675)">
    <path id="路径_4066" data-name="路径 4066" d="M159.127,104.358v1.358a.794.794,0,0,1-1.588,0v-1.358a9,9,0,0,1-8.206-8.966v-.529a.794.794,0,0,1,1.588,0v.529a7.412,7.412,0,1,0,14.824,0v-.529a.794.794,0,0,1,1.588,0v.529A9,9,0,0,1,159.127,104.358Zm-6.088-13.733a5.294,5.294,0,0,1,10.588,0v4.77a5.294,5.294,0,0,1-10.588,0Zm1.588,0v4.77a3.706,3.706,0,0,0,7.412,0v-4.77a3.706,3.706,0,0,0-7.412,0Z" transform="translate(1162.667 597.189)" fill="#4a928c"/>
    <rect id="矩形_3686" data-name="矩形 3686" width="36" height="36" rx="6" transform="translate(1303 675)" fill="none"/>
  </g>
</svg>
