<svg xmlns="http://www.w3.org/2000/svg" width="36" height="36" viewBox="0 0 36 36">
  <g id="sendpdf-default" transform="translate(-1264 -675)">
    <rect id="矩形_3687" data-name="矩形 3687" width="36" height="36" rx="6" transform="translate(1264 675)" fill="none"/>
    <g id="组_4352" data-name="组 4352" transform="translate(1176.611 587.177)">
      <path id="路径_4067" data-name="路径 4067" d="M107.721,114.461H97.8a.243.243,0,0,1-.257-.256V97.795a.243.243,0,0,1,.257-.256h7.454v3.846a1.819,1.819,0,0,0,1.8,1.795h3.856v.923a.771.771,0,0,0,1.542,0v-3.231a1.074,1.074,0,0,0-.206-.564l-4.113-4.1a.774.774,0,0,0-.565-.205H97.8A1.819,1.819,0,0,0,96,97.795v16.41A1.819,1.819,0,0,0,97.8,116h9.922a.769.769,0,1,0,0-1.538Zm3.187-13.231v.41h-3.856a.243.243,0,0,1-.257-.256V97.538h.463Z" fill="#afb0b4"/>
      <path id="路径_4068" data-name="路径 4068" d="M299.473,533.333a.969.969,0,0,0-.6.151.628.628,0,0,0-.2.555v4.89a.814.814,0,0,0,.151.454.731.731,0,0,0,1.008,0,.616.616,0,0,0,.151-.454v-1.512h.756a1.877,1.877,0,0,0,2.117-2.067,1.979,1.979,0,0,0-.555-1.512,2.087,2.087,0,0,0-1.563-.5h-1.26Zm2.067,2.017c0,.3-.05.555-.2.655a1.006,1.006,0,0,1-.655.2h-.756v-1.664h.756a.856.856,0,0,1,.655.2C301.49,534.845,301.54,535.047,301.54,535.349Zm5.848-1.109a2.718,2.718,0,0,0-.807-.706,4.335,4.335,0,0,0-1.21-.2H303.91a.6.6,0,0,0-.555.2,1.007,1.007,0,0,0-.1.454v4.89a1.007,1.007,0,0,0,.1.454.6.6,0,0,0,.555.2h1.512a2.8,2.8,0,0,0,1.16-.252,2.158,2.158,0,0,0,.807-.706,3.079,3.079,0,0,0,.454-1.008,4.52,4.52,0,0,0,0-2.319A3.639,3.639,0,0,0,307.388,534.24Zm-1.008,3.63a1.018,1.018,0,0,1-.907.454h-.907v-3.781h.655a1.276,1.276,0,0,1,1.109.454,2.249,2.249,0,0,1,.353,1.412A2.434,2.434,0,0,1,306.38,537.87Zm5.344-4.537H309.2a.753.753,0,0,0-.5.151.585.585,0,0,0-.2.5v4.941a.572.572,0,0,0,.151.4.531.531,0,0,0,.5.2.585.585,0,0,0,.5-.2.785.785,0,0,0,.151-.454v-2.017h1.714a.568.568,0,0,0,.6-.4c.05-.2.05-.353,0-.4a.592.592,0,0,0-.6-.4h-1.764v-1.16h1.916a1.007,1.007,0,0,0,.454-.1c.1-.05.2-.2.2-.5C312.379,533.585,312.127,533.333,311.724,533.333Z" transform="translate(-197.56 -426.737)" fill="#afb0b4"/>
    </g>
  </g>
</svg>
