<svg xmlns="http://www.w3.org/2000/svg" width="36" height="36" viewBox="0 0 36 36">
  <g id="send-disable" transform="translate(-1144 -839)">
    <circle id="椭圆_443" data-name="椭圆 443" cx="18" cy="18" r="18" transform="translate(1144 839)" fill="#e5e5e5"/>
    <path id="路径_4062" data-name="路径 4062" d="M43.72,25.689,26.641,30.942a1.459,1.459,0,0,0-.357,2.624l5.046,3.226a1.459,1.459,0,0,0,1.727-.114l6.3-5.315a.365.365,0,0,1,.514.514l-5.314,6.3a1.459,1.459,0,0,0-.114,1.727l3.225,5.045a1.459,1.459,0,0,0,2.624-.357l5.253-17.079a1.459,1.459,0,0,0-1.824-1.824Z" transform="translate(1125.39 822.377)" fill="#fff"/>
  </g>
</svg>
