<svg xmlns="http://www.w3.org/2000/svg" width="36" height="36" viewBox="0 0 36 36">
  <g id="sendmessage-active" transform="translate(-1344 -675)">
    <path id="路径_4063" data-name="路径 4063" d="M98.306,132.757l-14.225,2.384a.206.206,0,0,0-.123.337l1.765,2.064a.413.413,0,0,0,.462.117l12.175-4.705a.1.1,0,0,0-.054-.2ZM95.646,147.9l5.8-14.335a.206.206,0,0,0-.271-.268l-13.512,5.634a.309.309,0,0,0-.11.494l7.746,8.536a.206.206,0,0,0,.344-.061Zm-8.535-.093a1.454,1.454,0,0,1-.877.11.989.989,0,0,1-.836-1.153l-.408-7.478-2.1-2.506a2.03,2.03,0,0,1,1.236-3.407l16.715-2.279a2.034,2.034,0,0,1,2.1,2.885L97.283,148.5a2.048,2.048,0,0,1-3.336.522l-3.711-4.085q-.031.022-3.125,2.861Zm-.516-6.557.248,4.3a.206.206,0,0,0,.351.135l1.718-1.7a.413.413,0,0,0,.023-.561l-1.977-2.31a.206.206,0,0,0-.363.146Z" transform="translate(1250.628 567.078) rotate(-8)" fill="#4a928c"/>
    <rect id="矩形_3684" data-name="矩形 3684" width="36" height="36" transform="translate(1344 675)" fill="none"/>
    <rect id="矩形_3685" data-name="矩形 3685" width="36" height="36" rx="6" transform="translate(1344 675)" fill="none"/>
  </g>
</svg>
