<svg xmlns="http://www.w3.org/2000/svg" width="14.597" height="15.96" viewBox="0 0 14.597 15.96">
  <g id="sendpdf-active" transform="translate(-13.474 0)">
    <path id="路径_4076" data-name="路径 4076" d="M137.912,3.729l.042,11.09a.461.461,0,0,1-.462.462h-10.72a.461.461,0,0,1-.462-.462V1.138a.461.461,0,0,1,.462-.462l8.143-.017L134.273,0h-7.479a1.083,1.083,0,0,0-1.084,1.084V14.875a1.083,1.083,0,0,0,1.084,1.085H137.47a1.083,1.083,0,0,0,1.085-1.085V4.389l-.642-.659Z" transform="translate(-110.487 0)" fill="rgba(214,71,59,0.4)"/>
    <path id="路径_4077" data-name="路径 4077" d="M330.985,878.2l0,0c-.009,0-.016.006,0,0" transform="translate(-312.557 -864.514)" fill="#ef6a63"/>
    <path id="路径_4078" data-name="路径 4078" d="M284.555,442.892s0-.022,0-.027C284.556,442.878,284.558,442.889,284.555,442.892Zm-.04.133-.015.008h0a.077.077,0,0,0-.019.005h0a.506.506,0,0,0-.062,0l.014,0c-.011,0-.022,0-.031-.005-.025-.006-.051-.014-.074-.02l-.035-.014a2.425,2.425,0,0,1-.255-.144q-.059-.037-.115-.079l-.056-.042s.028.022.006.006l-.045-.037q-.112-.092-.217-.194c-.063-.061-.123-.125-.182-.189l.111.006.155.011.079.008h0a.545.545,0,0,1,.065.011,1.7,1.7,0,0,1,.313.084l.025.011c.02.008.039.02.056.029.04.022.079.048.118.073l.007.006.016.014c.017.014.031.028.045.042s.028.031.042.045.014.017.02.025c-.014-.017-.017-.022,0,0s.023.034.034.054.015.03.021.043l.013.038s.008.023.012.04v.039c0,.008,0,.044,0,.052l-.008.027c0,.008-.005.016-.008.026l0,0-.015.015Zm-3.54-1.223q-.489.031-.975.092c.046-.061.094-.121.139-.183.268-.372.513-.76.752-1.149.129-.213.257-.426.379-.643.034.065.068.131.1.2q.368.68.783,1.332.1.163.209.324C281.9,441.766,281.437,441.771,280.975,441.8Zm-2.715,1.223-.067.053-.011.008c.02-.017-.011.008-.011.008-.042.031-.085.062-.13.093s-.09.059-.135.084l-.065.034-.034.017-.019.008-.021.009c-.011,0-.022.008-.034.011a.738.738,0,0,1-.079.023c-.019,0-.039.009-.059.012l-.047,0-.071,0h0a.058.058,0,0,0-.015,0h0l-.006-.014a.105.105,0,0,0,0-.024c0-.012.005-.045,0-.049,0-.019.009-.039.015-.058a.08.08,0,0,1,.006-.016l0,0c.011-.02.02-.04.031-.059a.39.39,0,0,0,.026-.04l.008-.008a.483.483,0,0,1,.039-.042.617.617,0,0,1,.051-.045l0,0a1.244,1.244,0,0,1,.163-.1l.061-.029h0c.011-.006.022-.008.034-.014a1.334,1.334,0,0,1,.149-.05c.107-.034.214-.065.324-.093s.2-.048.3-.072c-.055.052-.106.109-.162.159C278.42,442.892,278.341,442.959,278.26,443.025Zm3.022-4.409a3.227,3.227,0,0,1-.07-.327.07.07,0,0,1,0-.018l0,.012a.4.4,0,0,0-.006-.056,1.093,1.093,0,0,1-.008-.138q0-.132,0-.265l.008-.124c0-.02,0-.042.006-.062s0-.02,0-.031V437.6c.014-.08.027-.16.047-.237l.034-.118.017-.05c0-.011.026-.064.015-.036l.014-.029c.008-.014.014-.028.022-.042a.571.571,0,0,1,.036-.06l.015.028s0,0,0,.006.014.034.02.051c.014.039.028.079.039.121.02.07.036.141.051.214,0,.017.007.032.009.048a1.4,1.4,0,0,1,.007.236.762.762,0,0,1-.006.082c0,.011-.008.076,0,.039-.008.059-.02.115-.031.175a4.627,4.627,0,0,1-.2.648l0,.009C281.3,438.661,281.288,438.639,281.282,438.616Zm3.763,4.146a1.213,1.213,0,0,0-1-.885,4.7,4.7,0,0,0-.772-.082c-.092,0-.184-.005-.276-.009-.046-.066-.092-.131-.135-.2q-.387-.575-.732-1.177c-.2-.347-.4-.7-.569-1.059.01-.021.021-.041.031-.062a4.543,4.543,0,0,0,.459-1.484,1.947,1.947,0,0,0-.068-.662,1.4,1.4,0,0,0-.223-.5.5.5,0,0,0-.236-.178.378.378,0,0,0-.216,0,.212.212,0,0,0-.11.033,1.373,1.373,0,0,0-.487.952,3.087,3.087,0,0,0,.065,1.293,4.572,4.572,0,0,0,.218.609q-.126.247-.265.486-.321.554-.67,1.09-.173.266-.358.524c-.062.085-.124.172-.186.253-.014.02-.029.04-.045.059l-.008.011c.017-.02-.008.011-.008.011-.034.045-.071.09-.1.133s-.05.056-.074.084a11.809,11.809,0,0,0-1.326.307,1.865,1.865,0,0,0-.682.335.933.933,0,0,0-.335.659.6.6,0,0,0,.1.372.562.562,0,0,0,.417.217,1.218,1.218,0,0,0,.721-.186,4.063,4.063,0,0,0,.588-.439,6.359,6.359,0,0,0,.49-.465c.1-.1.187-.211.279-.318.069-.012.137-.026.206-.037.053-.008.107-.017.16-.022l.02,0c-.028,0,.028,0,.034-.006.031,0,.062-.008.093-.011q.174-.022.349-.039a18.5,18.5,0,0,1,2.346-.071c.078.1.158.2.242.3a3.949,3.949,0,0,0,.465.459,2.672,2.672,0,0,0,.583.389.786.786,0,0,0,.749.017.668.668,0,0,0,.271-.7Zm-7.26.57h0" transform="translate(-259.352 -429.645)" fill="#ef6a63"/>
    <path id="路径_4079" data-name="路径 4079" d="M558.577,7.515v0c-.005.013-.009.021,0,0m1.811-4.3a1.177,1.177,0,0,0,1.177,1.177h3.107L560.388,0V3.214Z" transform="translate(-536.603 0)" fill="#ef6a63"/>
    <path id="路径_4080" data-name="路径 4080" d="M21.561,228.272H14.978a1.5,1.5,0,0,1-1.5-1.5v-.994a1.5,1.5,0,0,1,1.5-1.5h6.583a1.5,1.5,0,0,1,1.5,1.5v.994a1.5,1.5,0,0,1-1.5,1.5" transform="translate(0 -220.774)" fill="#fa4e4e"/>
    <path id="路径_4081" data-name="路径 4081" d="M76.508,274.863h1.963v.552H77.306v.448h1v.518h-1v1.051h-.8Zm-1.991.583v1.4h.194a.818.818,0,0,0,.355-.056.386.386,0,0,0,.167-.192,1.216,1.216,0,0,0,.059-.445.879.879,0,0,0-.133-.56.563.563,0,0,0-.442-.152Zm-.794-.583H74.9a1.379,1.379,0,0,1,.563.1.919.919,0,0,1,.355.271,1.148,1.148,0,0,1,.2.411,1.931,1.931,0,0,1,.062.5,1.746,1.746,0,0,1-.093.639,1.053,1.053,0,0,1-.259.381.893.893,0,0,1-.358.206,1.8,1.8,0,0,1-.473.071h-1.18Zm-1.809,1.1h.194a.5.5,0,0,0,.324-.079.258.258,0,0,0,.093-.205.287.287,0,0,0-.082-.206.416.416,0,0,0-.3-.084h-.226Zm-.8-1.1h1.321a.892.892,0,0,1,.645.206.77.77,0,0,1,.214.583.8.8,0,0,1-.234.608,1.012,1.012,0,0,1-.715.22h-.431v.955h-.8Z" transform="translate(-56.742 -270.579)" fill="#fff"/>
  </g>
</svg>
