<svg xmlns="http://www.w3.org/2000/svg" width="14" height="14.001" viewBox="0 0 14 14.001">
  <g id="share" transform="translate(0 -0.624)">
    <path id="路径_4746" data-name="路径 4746" d="M-3486-624.7a6.537,6.537,0,0,1,1.663-4.826,4.711,4.711,0,0,1,3.131-1.365h1.472l-1.436-1.436a.609.609,0,0,1-.181-.435.609.609,0,0,1,.181-.436.609.609,0,0,1,.436-.181.61.61,0,0,1,.436.181l2.487,2.487a.613.613,0,0,1,.182.436.62.62,0,0,1-.181.436l-2.483,2.482a.613.613,0,0,1-.436.181.612.612,0,0,1-.436-.18.618.618,0,0,1,0-.872l1.432-1.431h-1.448c-.146,0-3.585.057-3.585,4.958a.617.617,0,0,1-.617.616A.617.617,0,0,1-3486-624.7Z" transform="translate(3491.63 634)" fill="#4a928c"/>
    <path id="路径_3122" data-name="路径 3122" d="M232.338,306.255a.639.639,0,0,0-.639.639v4.925a.812.812,0,0,1-.811.811h-9.824a.81.81,0,0,1-.81-.811v-9.572a.811.811,0,0,1,.81-.811h5.577v0c.006,0,.013,0,.02,0a.639.639,0,0,0,0-1.279c-.006,0-.013,0-.02,0v-.005h-5.577a2.091,2.091,0,0,0-2.087,2.09v9.57a2.092,2.092,0,0,0,2.087,2.09h9.824a2.093,2.093,0,0,0,2.089-2.09V306.9h0l0-.008A.639.639,0,0,0,232.338,306.255Z" transform="translate(-218.977 -299.283)" fill="#4a928c"/>
  </g>
</svg>
