<svg xmlns="http://www.w3.org/2000/svg" width="16" height="16" viewBox="0 0 16 16">
  <g id="shareImage" transform="translate(-4 -4)">
    <rect id="矩形_4440" data-name="矩形 4440" width="16" height="16" transform="translate(4 4)" fill="none"/>
    <g id="组_4912" data-name="组 4912">
      <path id="路径_4801" data-name="路径 4801" d="M225.369,281.338a.664.664,0,0,1-.521-1.076l2.73-3.465a.667.667,0,0,1,1.046,0l1.125,1.444,2.205-3.863a.664.664,0,0,1,1.155,0l1.11,1.935a6.75,6.75,0,0,1,3.068-.75v-2.528a2,2,0,0,0-1.991-1.995H226a2,2,0,0,0-2,1.995v7.305a2,2,0,0,0,2,1.995h4.519a6.749,6.749,0,0,1,.075-1Zm1.455-8.3a.829.829,0,1,1-.829.829A.829.829,0,0,1,226.824,273.035Z" transform="translate(-218.75 -264.688)" fill="#fff"/>
      <path id="路径_4802" data-name="路径 4802" d="M557.9,518.56l2.535,2.539-2.535,2.557v-1.47A4.544,4.544,0,0,0,553.92,524s.461-3.99,3.982-3.99Z" transform="translate(-540.938 -506.406)" fill="#fff"/>
    </g>
  </g>
</svg>
