<svg xmlns="http://www.w3.org/2000/svg" width="16" height="16" viewBox="0 0 16 16">
  <g id="shareLink" transform="translate(-4 -4)">
    <path id="联合_193" data-name="联合 193" d="M.788,11.169a2.7,2.7,0,0,1,0-3.812l2.7-2.7a2.7,2.7,0,0,1,3.813,0c.028.028.056.058.083.087.016.013.031.027.046.042a.645.645,0,0,1,.106.139l.01.013,0,0a.646.646,0,0,1-.879.87c-.017.018-.186-.151-.276-.241h0a1.4,1.4,0,0,0-1.984,0L1.7,8.269a1.406,1.406,0,0,0,0,1.988h0a1.406,1.406,0,0,0,1.988,0L5.318,8.629a2.1,2.1,0,0,0,1.8.024L4.6,11.17a2.7,2.7,0,0,1-3.813,0ZM12.069,7.711V6.259L14.6,8.8l-2.535,2.557V9.886A4.544,4.544,0,0,0,8.087,11.7S8.548,7.711,12.069,7.711ZM4.656,7.3c-.028-.028-.056-.058-.083-.087-.016-.013-.031-.027-.046-.042a.645.645,0,0,1-.106-.139l-.01-.013,0,0a.646.646,0,0,1,.879-.87c.017-.018.186.151.276.241h0a1.4,1.4,0,0,0,1.984,0l2.705-2.705a1.406,1.406,0,0,0,0-1.988h0a1.406,1.406,0,0,0-1.988,0L6.641,3.329a2.109,2.109,0,0,0-1.8-.024L7.357.788A2.7,2.7,0,0,1,11.17,4.6l-2.7,2.7a2.7,2.7,0,0,1-3.813,0Z" transform="translate(4.896 6.021)" fill="#fff"/>
    <rect id="矩形_4441" data-name="矩形 4441" width="16" height="16" transform="translate(4 4)" fill="none"/>
  </g>
</svg>
