<svg xmlns="http://www.w3.org/2000/svg" width="36" height="36" viewBox="0 0 36 36">
  <g id="stop" transform="translate(-1344 -675)">
    <rect id="矩形_3684" data-name="矩形 3684" width="36" height="36" transform="translate(1344 675)" fill="none"/>
    <rect id="矩形_3685" data-name="矩形 3685" width="36" height="36" rx="6" transform="translate(1344 675)" fill="none"/>
    <path id="stop-2" data-name="stop" d="M10,20A10,10,0,1,0,0,10,10,10,0,0,0,10,20ZM16.062,3.939A8.262,8.262,0,0,1,18.572,10a8.262,8.262,0,0,1-2.51,6.062A8.262,8.262,0,0,1,10,18.572a8.262,8.262,0,0,1-6.062-2.51A8.262,8.262,0,0,1,1.429,10a8.262,8.262,0,0,1,2.51-6.062A8.262,8.262,0,0,1,10,1.429a8.262,8.262,0,0,1,6.062,2.51Zm-8.2,9.633a1.429,1.429,0,0,1-1.429-1.429V7.857A1.429,1.429,0,0,1,7.857,6.429h4.286a1.429,1.429,0,0,1,1.429,1.429v4.286a1.429,1.429,0,0,1-1.429,1.429Z" transform="translate(1352 683)" fill="#4a928c"/>
  </g>
</svg>
