<svg xmlns="http://www.w3.org/2000/svg" width="36" height="36" viewBox="0 0 36 36">
  <g id="stop" transform="translate(-1344 -675)">
    <rect id="矩形_3684" data-name="矩形 3684" width="36" height="36" transform="translate(1344 675)" fill="none"/>
    <rect id="矩形_3685" data-name="矩形 3685" width="36" height="36" rx="6" transform="translate(1344 675)" fill="none"/>
    <path id="stop-2" data-name="stop" d="M18,36A18,18,0,1,0,0,18,18,18,0,0,0,18,36ZM28.912,7.09A14.872,14.872,0,0,1,33.43,18a14.872,14.872,0,0,1-4.518,10.912A14.872,14.872,0,0,1,18,33.43,14.872,14.872,0,0,1,7.088,28.912,14.872,14.872,0,0,1,2.572,18,14.872,14.872,0,0,1,7.09,7.088,14.872,14.872,0,0,1,18,2.572,14.872,14.872,0,0,1,28.912,7.09ZM14.152,24.43a2.572,2.572,0,0,1-2.572-2.572V14.143a2.572,2.572,0,0,1,2.563-2.57h7.715a2.572,2.572,0,0,1,2.572,2.572v7.715a2.572,2.572,0,0,1-2.572,2.572Z" transform="translate(1344 675)" fill="#4a928c"/>
  </g>
</svg>
