<svg xmlns="http://www.w3.org/2000/svg" width="6" height="6" viewBox="0 0 6 6">
  <g id="toggle" transform="translate(575.5 -5.218)">
    <path id="路径_3023" data-name="路径 3023" d="M-852.5-1068.444a.5.5,0,0,1-.354-.146l-2.5-2.5a.5.5,0,0,1,0-.707.5.5,0,0,1,.707,0l2.146,2.146,2.146-2.146a.5.5,0,0,1,.707,0,.5.5,0,0,1,0,.707l-2.5,2.5A.5.5,0,0,1-852.5-1068.444Z" transform="translate(280 1078.694)" fill="#4a928c"/>
    <rect id="矩形_3681" data-name="矩形 3681" width="6" height="6" transform="translate(-575.5 5.218)" fill="none"/>
  </g>
</svg>
