<svg id="unhelpful" xmlns="http://www.w3.org/2000/svg" width="14" height="14" viewBox="0 0 14 14">
  <rect id="矩形_3682" data-name="矩形 3682" width="14" height="14" fill="none"/>
  <path id="路径_4054" data-name="路径 4054" d="M53.676,42.666h-9.1a1.875,1.875,0,0,0-1.909,1.909V49.03a1.875,1.875,0,0,0,1.909,1.909H46.1l2.355,5.345a.557.557,0,0,0,.573.382,2.553,2.553,0,0,0,2.545-2.545V52.211h3.309a1.8,1.8,0,0,0,1.273-.764,1.572,1.572,0,0,0,.318-1.4l-.891-5.727a1.97,1.97,0,0,0-1.909-1.655Zm-6.555,1.273h6.555a.685.685,0,0,1,.636.509l.891,5.727a.537.537,0,0,1-.127.445.644.644,0,0,1-.445.255H50.94a.6.6,0,0,0-.636.636v2.609a1.3,1.3,0,0,1-.891,1.209l-2.291-5.155Zm-2.545,5.727a.6.6,0,0,1-.636-.636V44.575a.6.6,0,0,1,.636-.636h1.273v5.727H44.576Z" transform="translate(-42.667 -42.666)" fill="#4a928c"/>
</svg>
