<svg id="unhelpful-checked" xmlns="http://www.w3.org/2000/svg" width="14.001" height="14.001" viewBox="0 0 14.001 14.001">
  <rect id="矩形_3682" data-name="矩形 3682" width="14" height="14" transform="translate(0.001 0.001)" fill="none"/>
  <path id="减去_206" data-name="减去 206" d="M11.01,0H4V9.552l1.792,4.067A.555.555,0,0,0,6.364,14a2.548,2.548,0,0,0,2.547-2.544V9.547h3.307a1.816,1.816,0,0,0,1.275-.765,1.562,1.562,0,0,0,.316-1.4l-.892-5.728A1.975,1.975,0,0,0,11.01,0ZM2.6,0H1.911A1.869,1.869,0,0,0,0,1.911V6.364A1.869,1.869,0,0,0,1.911,8.275H2.6V0Z" fill="#4a928c"/>
</svg>
