<svg id="wechat" xmlns="http://www.w3.org/2000/svg" width="48" height="48" viewBox="0 0 48 48">
  <path id="路径_4804" data-name="路径 4804" d="M9.8,48H38.2A9.793,9.793,0,0,0,48,38.2V9.8A9.793,9.793,0,0,0,38.2,0H9.8A9.793,9.793,0,0,0,0,9.8V38.2A9.793,9.793,0,0,0,9.8,48Z" fill="#03db6c"/>
  <path id="路径_4805" data-name="路径 4805" d="M153.894,209.809a14.52,14.52,0,0,1,11.843,1l-.034-.015a10.606,10.606,0,0,1,5.412,7.033,12.44,12.44,0,0,0-9.271,3.051,9.005,9.005,0,0,0-2.841,5.1,8.643,8.643,0,0,0,.377,4.236,15.577,15.577,0,0,1-5.255-.749l-4.173,2.258c.416-1.229.793-2.454,1.224-3.683a11.019,11.019,0,0,1-4.619-6.3,9.066,9.066,0,0,1,1.126-7.028,12.027,12.027,0,0,1,6.21-4.907Zm10.2,4.584a1.8,1.8,0,0,0-1.626-.245,1.756,1.756,0,0,0-.475,3.007,1.739,1.739,0,0,0,2.831-1.229v-.059A1.794,1.794,0,0,0,164.091,214.393Zm-10.2-.181a1.766,1.766,0,1,0,2.3,2.135,1.8,1.8,0,0,0-2.3-2.135Zm21.643,5.583a9.433,9.433,0,0,1,4.4,4.5v-.049a7.7,7.7,0,0,1-.22,6.6,10.254,10.254,0,0,1-3.208,3.541c.318,1.019.637,1.988.965,3.007-1.185-.553-2.2-1.288-3.428-1.778a12.765,12.765,0,0,1-6.22.431,10.354,10.354,0,0,1-7.018-4.613,7.544,7.544,0,0,1-.955-5.681,8.8,8.8,0,0,1,4.814-5.96,11.955,11.955,0,0,1,10.873,0Zm-9.776,3.889a1.409,1.409,0,1,0,1.812-.387A1.417,1.417,0,0,0,165.761,223.684Zm7.9-.514c-.749,0-1.175.7-1.337,1.347a2.049,2.049,0,0,0,.48,1.019,1.431,1.431,0,0,0,1.22.372,1.449,1.449,0,0,0,1.033-.754,1.395,1.395,0,0,0-1.4-1.984Z" transform="translate(-139.43 -199.194)" fill="#fff"/>
</svg>
