<svg xmlns="http://www.w3.org/2000/svg" xmlns:xlink="http://www.w3.org/1999/xlink" width="14" height="14" viewBox="0 0 14 14">
  <defs>
    <clipPath id="clip-wrap">
      <rect width="14" height="14"/>
    </clipPath>
  </defs>
  <g id="wrap" clip-path="url(#clip-wrap)">
    <g id="组_4878" data-name="组 4878" transform="translate(-87.333 -212.133)">
      <path id="路径_4769" data-name="路径 4769" d="M87.333,214.133a.8.8,0,0,1,.8-.8h12.4a.8.8,0,1,1,0,1.6h-12.4A.8.8,0,0,1,87.333,214.133Zm0,4.8a.8.8,0,0,1,.8-.8h10a3.2,3.2,0,1,1,0,6.4H96.864l.234.234a.8.8,0,1,1-1.131,1.131l-1.6-1.6a.8.8,0,0,1,0-1.131l1.6-1.6A.8.8,0,1,1,97.1,222.7l-.234.234h1.269a1.6,1.6,0,0,0,0-3.2h-10a.8.8,0,0,1-.8-.8Z" fill="#4a928c"/>
      <path id="路径_4770" data-name="路径 4770" d="M87.333,726.133a.8.8,0,0,1,.8-.8h3.6a.8.8,0,1,1,0,1.6h-3.6A.8.8,0,0,1,87.333,726.133Z" transform="translate(0 -502.4)" fill="#4a928c"/>
    </g>
  </g>
</svg>
